<?xml version="1.0" encoding="UTF-8"?>
<!DOCTYPE svg PUBLIC "-//W3C//DTD SVG 1.1//EN" "http://www.w3.org/Graphics/SVG/1.1/DTD/svg11.dtd">
<!-- Creator: CorelDRAW 2021.5 -->
<svg xmlns="http://www.w3.org/2000/svg" xml:space="preserve" width="93.1779mm" height="60.8796mm" version="1.1" style="shape-rendering:geometricPrecision; text-rendering:geometricPrecision; image-rendering:optimizeQuality; fill-rule:evenodd; clip-rule:evenodd"
viewBox="0 0 834.1 544.97"
 xmlns:xlink="http://www.w3.org/1999/xlink"
 xmlns:xodm="http://www.corel.com/coreldraw/odm/2003">
 <defs>
  <style type="text/css">
   <![CDATA[
    .str1 {stroke:white;stroke-width:3.16;stroke-miterlimit:22.9256}
    .str0 {stroke:black;stroke-width:1.79;stroke-miterlimit:22.9256}
    .fil1 {fill:none}
    .fil4 {fill:#999999}
    .fil0 {fill:white}
    .fil3 {fill:white}
    .fil2 {fill:white;fill-rule:nonzero}
   ]]>
  </style>
   <clipPath id="id0">
    <path d="M271.99 230.98c24.94,0 45.16,20.32 45.16,45.39 0,25.07 -20.22,45.39 -45.16,45.39 -24.94,0 -45.16,-20.32 -45.16,-45.39 0,-25.07 20.22,-45.39 45.16,-45.39z"/>
   </clipPath>
     <mask id="id1">
  <linearGradient id="id2" gradientUnits="userSpaceOnUse" x1="113.64" y1="306.12" x2="210.11" y2="333.74">
   <stop offset="0" style="stop-opacity:1; stop-color:white"/>
   <stop offset="1" style="stop-opacity:0; stop-color:white"/>
  </linearGradient>
      <rect style="fill:url(#id2)" x="99.41" y="265.61" width="97.39" height="97.87"/>
     </mask>
   <clipPath id="id3">
    <path d="M293.69 0.94c41.04,3.41 79.17,15.83 112.64,35.18 7.35,4.24 19.36,11.53 30.37,19.3 21,14.82 35.55,29.58 33.22,57.68 -2.59,31.24 -29.89,54.47 -60.98,51.89 -23.7,-1.97 -34.1,-16.91 -52.62,-28.65 -102,-64.66 -234.09,1.35 -244.18,122.94 -7.33,88.26 57.93,165.72 145.75,173.01 31.87,2.65 62.33,-4.32 88.56,-18.48 14.87,-8.03 23.66,-15.42 35.49,-26.96 12.92,-12.59 24.33,-22.44 48.28,-20.45 31.08,2.58 54.18,30 51.59,61.24 -2.57,30.92 -35.56,54.73 -59.67,71.01 -49.29,33.31 -109.75,50.66 -173.53,45.37 -149.23,-12.38 -260.11,-144 -247.66,-293.97 12.45,-149.97 143.51,-261.51 292.74,-249.12z"/>
   </clipPath>
     <mask id="id4">
  <linearGradient id="id5" gradientUnits="userSpaceOnUse" x1="480.14" y1="506.16" x2="354.95" y2="336.65">
   <stop offset="0" style="stop-opacity:1; stop-color:white"/>
   <stop offset="0.729412" style="stop-opacity:0.501961; stop-color:white"/>
   <stop offset="1" style="stop-opacity:0; stop-color:white"/>
  </linearGradient>
      <rect style="fill:url(#id5)" x="-150.26" y="-97.14" width="931.8" height="787.68"/>
     </mask>
 </defs>
 <g id="Capa_x0020_1">
  <metadata id="CorelCorpID_0Corel-Layer"/>
  <path class="fil0" d="M271.99 230.98c24.94,0 45.16,20.32 45.16,45.39 0,25.07 -20.22,45.39 -45.16,45.39 -24.94,0 -45.16,-20.32 -45.16,-45.39 0,-25.07 20.22,-45.39 45.16,-45.39z"/>
  <g style="clip-path:url(#id0)">
   <g id="_2898140750048">
    <path id="_1" class="fil0" style="mask:url(#id1)" d="M148.11 266.51c26.4,0 47.8,21.51 47.8,48.04 0,26.53 -21.4,48.04 -47.8,48.04 -26.4,0 -47.8,-21.51 -47.8,-48.04 0,-26.53 21.4,-48.04 47.8,-48.04z"/>
   </g>
  </g>
  <path class="fil1" d="M271.99 230.98c24.94,0 45.16,20.32 45.16,45.39 0,25.07 -20.22,45.39 -45.16,45.39 -24.94,0 -45.16,-20.32 -45.16,-45.39 0,-25.07 20.22,-45.39 45.16,-45.39z"/>
  <path class="fil2" d="M556.32 324.41c-9.8,4.74 -22.63,7.11 -38.45,7.11 -20.62,0 -36.85,-6.05 -48.66,-18.18 -11.84,-12.13 -17.74,-28.3 -17.74,-48.5 0,-21.51 6.63,-38.96 19.91,-52.34 13.29,-13.38 30.54,-20.07 51.73,-20.07 13.12,0 24.2,1.66 33.2,4.99l0 29.16c-9,-5.38 -19.24,-8.07 -30.76,-8.07 -12.61,0 -22.82,3.97 -30.57,11.91 -7.75,7.94 -11.62,18.69 -11.62,32.27 0,13 3.65,23.37 10.98,31.08 7.3,7.71 17.16,11.59 29.55,11.59 11.81,0 22.63,-2.88 32.43,-8.64l0 27.69zm124.81 -129.71l-43.79 86.66 0 47.83 -30.28 0 0 -47.28 -42.67 -87.2 34.6 0 21.67 50.16c0.38,0.93 1.41,4.61 3.07,10.98l0.38 0c0.83,-4.51 1.79,-8.04 2.91,-10.6l22.06 -50.55 32.04 0zm15.21 134.48l0 -134.48 47.67 0c47.76,0 71.64,21.83 71.64,65.56 0,20.94 -6.53,37.65 -19.56,50.16 -13.03,12.52 -30.38,18.76 -52.08,18.76l-47.67 0zm30.32 -109.83l0 85.25 15.01 0c13.12,0 23.4,-3.94 30.89,-11.81 7.46,-7.87 11.2,-18.6 11.2,-32.17 0,-12.8 -3.71,-22.89 -11.11,-30.22 -7.43,-7.36 -17.8,-11.04 -31.18,-11.04l-14.82 0z"/>
  <path class="fil3" d="M293.69 0.94c41.04,3.41 79.17,15.83 112.64,35.18 7.35,4.24 19.36,11.53 30.37,19.3 21,14.82 35.55,29.58 33.22,57.68 -2.59,31.24 -29.89,54.47 -60.98,51.89 -23.7,-1.97 -34.1,-16.91 -52.62,-28.65 -102,-64.66 -234.09,1.35 -244.18,122.94 -7.33,88.26 57.93,165.72 145.75,173.01 31.87,2.65 62.33,-4.32 88.56,-18.48 14.87,-8.03 23.66,-15.42 35.49,-26.96 12.92,-12.59 24.33,-22.44 48.28,-20.45 31.08,2.58 54.18,30 51.59,61.24 -2.57,30.92 -35.56,54.73 -59.67,71.01 -49.29,33.31 -109.75,50.66 -173.53,45.37 -149.23,-12.38 -260.11,-144 -247.66,-293.97 12.45,-149.97 143.51,-261.51 292.74,-249.12z"/>
  <g style="clip-path:url(#id3)">
   <g id="_2898140723168">
    <polygon id="_1_0" class="fil4 str0" style="mask:url(#id4)" points="721.41,689.65 -149.36,617.38 -90.14,-96.24 780.64,-23.97 "/>
   </g>
  </g>
  <path class="fil1" d="M293.69 0.94c41.04,3.41 79.17,15.83 112.64,35.18 7.35,4.24 19.36,11.53 30.37,19.3 21,14.82 35.55,29.58 33.22,57.68 -2.59,31.24 -29.89,54.47 -60.98,51.89 -23.7,-1.97 -34.1,-16.91 -52.62,-28.65 -102,-64.66 -234.09,1.35 -244.18,122.94 -7.33,88.26 57.93,165.72 145.75,173.01 31.87,2.65 62.33,-4.32 88.56,-18.48 14.87,-8.03 23.66,-15.42 35.49,-26.96 12.92,-12.59 24.33,-22.44 48.28,-20.45 31.08,2.58 54.18,30 51.59,61.24 -2.57,30.92 -35.56,54.73 -59.67,71.01 -49.29,33.31 -109.75,50.66 -173.53,45.37 -149.23,-12.38 -260.11,-144 -247.66,-293.97 12.45,-149.97 143.51,-261.51 292.74,-249.12z"/>
  <circle class="fil1 str1" cx="806.97" cy="164.63" r="25.55"/>
  <path class="fil2" d="M820.75 178.01l-5.58 0 -4.37 -7.6c-0.77,-1.33 -1.47,-2.25 -2.11,-2.76 -0.64,-0.5 -1.39,-0.78 -2.25,-0.82l-2.53 0 0 11.17 -4.85 0 0 -28.59 9.35 0c2.96,0 5.29,0.66 6.99,1.99 1.69,1.33 2.54,3.31 2.54,5.94 0,1.97 -0.54,3.63 -1.63,5 -1.08,1.37 -2.57,2.37 -4.45,3.01l0 0.07c0.71,0.31 1.37,0.78 1.96,1.41 0.59,0.63 1.14,1.38 1.65,2.26l5.28 8.9zm-16.84 -24.68l0 9.59 3.69 0c1.52,0 2.78,-0.48 3.76,-1.44 0.99,-0.97 1.48,-2.19 1.48,-3.66 0,-1.42 -0.44,-2.52 -1.31,-3.31 -0.88,-0.78 -2.16,-1.18 -3.85,-1.18l-3.76 0z"/>
 </g>
</svg>
