<?xml version="1.0" encoding="UTF-8"?>
<!DOCTYPE svg PUBLIC "-//W3C//DTD SVG 1.1//EN" "http://www.w3.org/Graphics/SVG/1.1/DTD/svg11.dtd">
<!-- Creator: CorelDRAW 2021.5 -->
<svg xmlns="http://www.w3.org/2000/svg" xml:space="preserve" width="91.1167mm" height="60.8796mm" version="1.1" style="shape-rendering:geometricPrecision; text-rendering:geometricPrecision; image-rendering:optimizeQuality; fill-rule:evenodd; clip-rule:evenodd"
viewBox="0 0 797.6 532.92"
 xmlns:xlink="http://www.w3.org/1999/xlink"
 xmlns:xodm="http://www.corel.com/coreldraw/odm/2003">
 <defs>
  <style type="text/css">
   <![CDATA[
    .str0 {stroke:black;stroke-width:1.75;stroke-miterlimit:22.9256}
    .fil1 {fill:none}
    .fil4 {fill:#999999}
    .fil0 {fill:white}
    .fil3 {fill:white}
    .fil2 {fill:white;fill-rule:nonzero}
   ]]>
  </style>
   <clipPath id="id0">
    <path d="M265.97 225.87c24.39,0 44.16,19.87 44.16,44.38 0,24.51 -19.77,44.38 -44.16,44.38 -24.39,0 -44.16,-19.87 -44.16,-44.38 0,-24.51 19.77,-44.38 44.16,-44.38z"/>
   </clipPath>
     <mask id="id1">
  <linearGradient id="id2" gradientUnits="userSpaceOnUse" x1="111.13" y1="299.35" x2="205.46" y2="326.36">
   <stop offset="0" style="stop-opacity:1; stop-color:white"/>
   <stop offset="1" style="stop-opacity:0; stop-color:white"/>
  </linearGradient>
      <rect style="fill:url(#id2)" x="97.22" y="259.73" width="95.24" height="95.7"/>
     </mask>
   <clipPath id="id3">
    <path d="M287.19 0.92c40.13,3.33 77.42,15.48 110.14,34.4 7.18,4.15 18.94,11.28 29.69,18.87 20.53,14.5 34.76,28.92 32.48,56.4 -2.54,30.55 -29.23,53.27 -59.63,50.75 -23.18,-1.92 -33.35,-16.53 -51.46,-28.01 -99.74,-63.23 -228.91,1.32 -238.78,120.22 -7.16,86.31 56.65,162.06 142.53,169.19 31.17,2.59 60.95,-4.22 86.6,-18.07 14.54,-7.85 23.14,-15.08 34.71,-26.36 12.64,-12.31 23.79,-21.94 47.21,-20 30.4,2.52 52.98,29.34 50.45,59.88 -2.51,30.24 -34.78,53.51 -58.35,69.44 -48.2,32.57 -107.32,49.54 -169.69,44.37 -145.93,-12.11 -254.35,-140.81 -242.18,-287.47 12.17,-146.65 140.33,-255.72 286.26,-243.61z"/>
   </clipPath>
     <mask id="id4">
  <linearGradient id="id5" gradientUnits="userSpaceOnUse" x1="469.52" y1="494.96" x2="347.09" y2="329.21">
   <stop offset="0" style="stop-opacity:1; stop-color:white"/>
   <stop offset="0.729412" style="stop-opacity:0.501961; stop-color:white"/>
   <stop offset="1" style="stop-opacity:0; stop-color:white"/>
  </linearGradient>
      <rect style="fill:url(#id5)" x="-146.94" y="-94.99" width="911.18" height="770.26"/>
     </mask>
 </defs>
 <g id="Capa_x0020_1">
  <metadata id="CorelCorpID_0Corel-Layer"/>
  <path class="fil0" d="M265.97 225.87c24.39,0 44.16,19.87 44.16,44.38 0,24.51 -19.77,44.38 -44.16,44.38 -24.39,0 -44.16,-19.87 -44.16,-44.38 0,-24.51 19.77,-44.38 44.16,-44.38z"/>
  <g style="clip-path:url(#id0)">
   <g id="_2898239098528">
    <path id="_1" class="fil0" style="mask:url(#id1)" d="M144.83 260.61c25.82,0 46.74,21.03 46.74,46.98 0,25.94 -20.93,46.98 -46.74,46.98 -25.82,0 -46.74,-21.03 -46.74,-46.98 0,-25.94 20.93,-46.98 46.74,-46.98z"/>
   </g>
  </g>
  <path class="fil1" d="M265.97 225.87c24.39,0 44.16,19.87 44.16,44.38 0,24.51 -19.77,44.38 -44.16,44.38 -24.39,0 -44.16,-19.87 -44.16,-44.38 0,-24.51 19.77,-44.38 44.16,-44.38z"/>
  <path class="fil2" d="M544.01 317.23c-9.58,4.63 -22.13,6.95 -37.6,6.95 -20.16,0 -36.03,-5.92 -47.58,-17.78 -11.58,-11.86 -17.34,-27.67 -17.34,-47.42 0,-21.04 6.48,-38.1 19.47,-51.18 12.99,-13.08 29.86,-19.63 50.59,-19.63 12.83,0 23.67,1.63 32.46,4.88l0 28.52c-8.8,-5.26 -18.81,-7.89 -30.08,-7.89 -12.33,0 -22.32,3.88 -29.9,11.64 -7.58,7.76 -11.36,18.28 -11.36,31.55 0,12.71 3.57,22.85 10.74,30.4 7.14,7.54 16.78,11.33 28.89,11.33 11.55,0 22.13,-2.82 31.71,-8.45l0 27.08zm122.05 -126.84l-42.82 84.74 0 46.77 -29.61 0 0 -46.24 -41.73 -85.27 33.84 0 21.19 49.05c0.38,0.91 1.38,4.51 3.01,10.74l0.38 0c0.81,-4.41 1.75,-7.86 2.85,-10.36l21.57 -49.43 31.34 0zm14.87 131.51l0 -131.51 46.61 0c46.71,0 70.06,21.35 70.06,64.11 0,20.47 -6.39,36.81 -19.13,49.05 -12.74,12.24 -29.71,18.34 -50.93,18.34l-46.61 0zm29.65 -107.4l0 83.36 14.68 0c12.83,0 22.88,-3.85 30.21,-11.55 7.29,-7.7 10.96,-18.19 10.96,-31.46 0,-12.52 -3.63,-22.38 -10.86,-29.55 -7.26,-7.2 -17.4,-10.8 -30.49,-10.8l-14.49 0z"/>
  <path class="fil3" d="M287.19 0.92c40.13,3.33 77.42,15.48 110.14,34.4 7.18,4.15 18.94,11.28 29.69,18.87 20.53,14.5 34.76,28.92 32.48,56.4 -2.54,30.55 -29.23,53.27 -59.63,50.75 -23.18,-1.92 -33.35,-16.53 -51.46,-28.01 -99.74,-63.23 -228.91,1.32 -238.78,120.22 -7.16,86.31 56.65,162.06 142.53,169.19 31.17,2.59 60.95,-4.22 86.6,-18.07 14.54,-7.85 23.14,-15.08 34.71,-26.36 12.64,-12.31 23.79,-21.94 47.21,-20 30.4,2.52 52.98,29.34 50.45,59.88 -2.51,30.24 -34.78,53.51 -58.35,69.44 -48.2,32.57 -107.32,49.54 -169.69,44.37 -145.93,-12.11 -254.35,-140.81 -242.18,-287.47 12.17,-146.65 140.33,-255.72 286.26,-243.61z"/>
  <g style="clip-path:url(#id3)">
   <g id="_2898239102320">
    <polygon id="_1_0" class="fil4 str0" style="mask:url(#id4)" points="705.45,674.39 -146.06,603.72 -88.14,-94.11 763.37,-23.44 "/>
   </g>
  </g>
  <path class="fil1" d="M287.19 0.92c40.13,3.33 77.42,15.48 110.14,34.4 7.18,4.15 18.94,11.28 29.69,18.87 20.53,14.5 34.76,28.92 32.48,56.4 -2.54,30.55 -29.23,53.27 -59.63,50.75 -23.18,-1.92 -33.35,-16.53 -51.46,-28.01 -99.74,-63.23 -228.91,1.32 -238.78,120.22 -7.16,86.31 56.65,162.06 142.53,169.19 31.17,2.59 60.95,-4.22 86.6,-18.07 14.54,-7.85 23.14,-15.08 34.71,-26.36 12.64,-12.31 23.79,-21.94 47.21,-20 30.4,2.52 52.98,29.34 50.45,59.88 -2.51,30.24 -34.78,53.51 -58.35,69.44 -48.2,32.57 -107.32,49.54 -169.69,44.37 -145.93,-12.11 -254.35,-140.81 -242.18,-287.47 12.17,-146.65 140.33,-255.72 286.26,-243.61z"/>
 </g>
</svg>
