<?xml version="1.0" encoding="UTF-8"?>
<!DOCTYPE svg PUBLIC "-//W3C//DTD SVG 1.1//EN" "http://www.w3.org/Graphics/SVG/1.1/DTD/svg11.dtd">
<!-- Creator: CorelDRAW 2021.5 -->
<svg xmlns="http://www.w3.org/2000/svg" xml:space="preserve" width="93.3728mm" height="60.8796mm" version="1.1" style="shape-rendering:geometricPrecision; text-rendering:geometricPrecision; image-rendering:optimizeQuality; fill-rule:evenodd; clip-rule:evenodd"
viewBox="0 0 3498.1 2280.78"
 xmlns:xlink="http://www.w3.org/1999/xlink"
 xmlns:xodm="http://www.corel.com/coreldraw/odm/2003">
 <defs>
  <style type="text/css">
   <![CDATA[
    .str1 {stroke:black;stroke-width:13.22;stroke-miterlimit:22.9256}
    .str0 {stroke:black;stroke-width:7.49;stroke-miterlimit:22.9256}
    .fil2 {fill:none}
    .fil0 {fill:black}
    .fil1 {fill:#999999}
    .fil4 {fill:black;fill-rule:nonzero}
    .fil3 {fill:#666666;fill-rule:nonzero}
   ]]>
  </style>
   <clipPath id="id0">
    <path d="M1138.32 966.66c104.38,0 189,85.04 189,189.95 0,104.91 -84.62,189.95 -189,189.95 -104.39,0 -189.01,-85.04 -189.01,-189.95 0,-104.9 84.62,-189.95 189.01,-189.95z"/>
   </clipPath>
     <mask id="id1">
  <linearGradient id="id2" gradientUnits="userSpaceOnUse" x1="994.05" y1="1121.36" x2="1397.8" y2="1236.96">
   <stop offset="0" style="stop-opacity:1; stop-color:white"/>
   <stop offset="1" style="stop-opacity:0; stop-color:white"/>
  </linearGradient>
      <rect style="fill:url(#id2)" x="934.52" y="951.81" width="407.6" height="409.6"/>
     </mask>
   <clipPath id="id3">
    <path d="M1229.13 3.93c171.75,14.25 331.34,66.26 471.4,147.22 30.75,17.77 81.04,48.26 127.09,80.78 87.88,62.04 148.78,123.79 139.02,241.4 -10.85,130.75 -125.11,227.98 -255.2,217.19 -99.2,-8.23 -142.72,-70.75 -220.22,-119.89 -426.87,-270.59 -979.68,5.64 -1021.91,514.52 -30.66,369.4 242.44,693.57 610,724.08 133.38,11.07 260.87,-18.08 370.63,-77.34 62.25,-33.6 99.04,-64.54 148.55,-112.82 54.09,-52.7 101.83,-93.9 202.06,-85.58 130.09,10.8 226.76,125.55 215.91,256.29 -10.74,129.4 -148.83,229.03 -249.72,297.2 -206.31,139.4 -459.32,212.03 -726.23,189.88 -624.53,-51.83 -1088.58,-602.66 -1036.49,-1230.32 52.09,-627.65 600.6,-1094.44 1225.14,-1042.6z"/>
   </clipPath>
     <mask id="id4">
  <linearGradient id="id5" gradientUnits="userSpaceOnUse" x1="330.03" y1="939.48" x2="1866.26" y2="2075.84">
   <stop offset="0" style="stop-opacity:1; stop-color:white"/>
   <stop offset="1" style="stop-opacity:0; stop-color:white"/>
  </linearGradient>
      <rect style="fill:url(#id5)" x="-628.85" y="-406.54" width="3899.68" height="3296.56"/>
     </mask>
 </defs>
 <g id="Capa_x0020_1">
  <metadata id="CorelCorpID_0Corel-Layer"/>
  <path class="fil0" d="M1138.32 966.66c104.38,0 189,85.04 189,189.95 0,104.91 -84.62,189.95 -189,189.95 -104.39,0 -189.01,-85.04 -189.01,-189.95 0,-104.9 84.62,-189.95 189.01,-189.95z"/>
  <g style="clip-path:url(#id0)">
   <g id="_2861513598064">
    <path id="_1" class="fil1" style="mask:url(#id1)" d="M1138.32 955.56c110.48,0 200.05,90.01 200.05,201.05 0,111.04 -89.56,201.05 -200.05,201.05 -110.49,0 -200.05,-90.01 -200.05,-201.05 0,-111.04 89.56,-201.05 200.05,-201.05z"/>
   </g>
  </g>
  <path class="fil2" d="M1138.32 966.66c104.38,0 189,85.04 189,189.95 0,104.91 -84.62,189.95 -189,189.95 -104.39,0 -189.01,-85.04 -189.01,-189.95 0,-104.9 84.62,-189.95 189.01,-189.95z"/>
  <path class="fil3" d="M2328.26 1357.68c-41,19.83 -94.72,29.74 -160.9,29.74 -86.28,0 -154.2,-25.32 -203.64,-76.1 -49.57,-50.77 -74.22,-118.43 -74.22,-202.97 0,-90.03 27.73,-163.05 83.33,-219.05 55.6,-56 127.81,-84 216.5,-84 54.93,0 101.28,6.96 138.93,20.9l0 122.05c-37.65,-22.51 -80.52,-33.76 -128.75,-33.76 -52.79,0 -95.53,16.61 -127.95,49.84 -32.42,33.23 -48.63,78.24 -48.63,135.05 0,54.39 15.27,97.8 45.95,130.09 30.54,32.29 71.81,48.5 123.66,48.5 49.44,0 94.72,-12.06 135.72,-36.17l0 115.89zm522.37 -542.86l-183.28 362.67 0 200.16 -126.74 0 0 -197.88 -178.59 -364.94 144.82 0 90.7 209.94c1.61,3.89 5.89,19.29 12.86,45.95l1.61 0c3.48,-18.89 7.5,-33.63 12.19,-44.35l92.31 -211.54 134.11 0zm63.64 562.82l0 -562.82 199.49 0c199.89,0 299.83,91.37 299.83,274.38 0,87.62 -27.33,157.55 -81.86,209.94 -54.53,52.39 -127.14,78.51 -217.98,78.51l-199.49 0zm126.88 -459.66l0 356.77 62.83 0c54.93,0 97.93,-16.48 129.28,-49.44 31.21,-32.96 46.89,-77.84 46.89,-134.65 0,-53.59 -15.54,-95.79 -46.49,-126.47 -31.08,-30.81 -74.49,-46.22 -130.49,-46.22l-62.03 0z"/>
  <path class="fil0" d="M1229.13 3.93c171.75,14.25 331.34,66.26 471.4,147.22 30.75,17.77 81.04,48.26 127.09,80.78 87.88,62.04 148.78,123.79 139.02,241.4 -10.85,130.75 -125.11,227.98 -255.2,217.19 -99.2,-8.23 -142.72,-70.75 -220.22,-119.89 -426.87,-270.59 -979.68,5.64 -1021.91,514.52 -30.66,369.4 242.44,693.57 610,724.08 133.38,11.07 260.87,-18.08 370.63,-77.34 62.25,-33.6 99.04,-64.54 148.55,-112.82 54.09,-52.7 101.83,-93.9 202.06,-85.58 130.09,10.8 226.76,125.55 215.91,256.29 -10.74,129.4 -148.83,229.03 -249.72,297.2 -206.31,139.4 -459.32,212.03 -726.23,189.88 -624.53,-51.83 -1088.58,-602.66 -1036.49,-1230.32 52.09,-627.65 600.6,-1094.44 1225.14,-1042.6z"/>
  <g style="clip-path:url(#id3)">
   <g id="_2861513599648">
    <polygon id="_1_0" class="fil1 str0" style="mask:url(#id4)" points="-377.23,-402.79 3267.08,-100.33 3019.21,2886.27 -625.11,2583.82 "/>
   </g>
  </g>
  <path class="fil2" d="M1229.13 3.93c171.75,14.25 331.34,66.26 471.4,147.22 30.75,17.77 81.04,48.26 127.09,80.78 87.88,62.04 148.78,123.79 139.02,241.4 -10.85,130.75 -125.11,227.98 -255.2,217.19 -99.2,-8.23 -142.72,-70.75 -220.22,-119.89 -426.87,-270.59 -979.68,5.64 -1021.91,514.52 -30.66,369.4 242.44,693.57 610,724.08 133.38,11.07 260.87,-18.08 370.63,-77.34 62.25,-33.6 99.04,-64.54 148.55,-112.82 54.09,-52.7 101.83,-93.9 202.06,-85.58 130.09,10.8 226.76,125.55 215.91,256.29 -10.74,129.4 -148.83,229.03 -249.72,297.2 -206.31,139.4 -459.32,212.03 -726.23,189.88 -624.53,-51.83 -1088.58,-602.66 -1036.49,-1230.32 52.09,-627.65 600.6,-1094.44 1225.14,-1042.6z"/>
  <circle class="fil2 str1" cx="3384.57" cy="684.62" r="106.92"/>
  <path class="fil4" d="M3442.25 740.6l-23.35 0 -18.29 -31.79c-3.22,-5.58 -6.15,-9.4 -8.83,-11.54 -2.68,-2.11 -5.81,-3.24 -9.43,-3.42l-10.6 0 0 46.74 -20.28 0 0 -119.66 39.13 0c12.39,0 22.16,2.76 29.25,8.35 7.09,5.55 10.62,13.84 10.62,24.86 0,8.23 -2.25,15.21 -6.81,20.93 -4.53,5.72 -10.74,9.94 -18.63,12.62l0 0.31c2.99,1.29 5.72,3.25 8.2,5.9 2.48,2.65 4.79,5.78 6.89,9.46l22.1 37.23zm-70.5 -103.31l0 40.13 15.44 0c6.38,0 11.65,-2.02 15.75,-6.04 4.13,-4.05 6.18,-9.14 6.18,-15.33 0,-5.95 -1.82,-10.56 -5.5,-13.84 -3.68,-3.27 -9.03,-4.93 -16.12,-4.93l-15.75 0z"/>
 </g>
</svg>
