<?xml version="1.0" encoding="UTF-8"?>
<!DOCTYPE svg PUBLIC "-//W3C//DTD SVG 1.1//EN" "http://www.w3.org/Graphics/SVG/1.1/DTD/svg11.dtd">
<!-- Creator: CorelDRAW 2021.5 -->
<svg xmlns="http://www.w3.org/2000/svg" xml:space="preserve" width="93.1779mm" height="60.8795mm" version="1.1" style="shape-rendering:geometricPrecision; text-rendering:geometricPrecision; image-rendering:optimizeQuality; fill-rule:evenodd; clip-rule:evenodd"
viewBox="0 0 9791.08 6397.18"
 xmlns:xlink="http://www.w3.org/1999/xlink"
 xmlns:xodm="http://www.corel.com/coreldraw/odm/2003">
 <defs>
  <style type="text/css">
   <![CDATA[
    .str1 {stroke:black;stroke-width:37.07;stroke-miterlimit:22.9256}
    .str0 {stroke:black;stroke-width:21.02;stroke-miterlimit:22.9256}
    .fil2 {fill:none}
    .fil4 {fill:#011B34}
    .fil0 {fill:#011B34}
    .fil1 {fill:#1CB8EB}
    .fil5 {fill:black;fill-rule:nonzero}
    .fil3 {fill:#2B83C4;fill-rule:nonzero}
   ]]>
  </style>
   <clipPath id="id0">
    <path d="M3192.77 2711.31c292.77,0 530.12,238.53 530.12,532.76 0,294.24 -237.34,532.77 -530.12,532.77 -292.78,0 -530.13,-238.53 -530.13,-532.77 0,-294.23 237.34,-532.76 530.13,-532.76z"/>
   </clipPath>
     <mask id="id1">
  <linearGradient id="id2" gradientUnits="userSpaceOnUse" x1="2788.14" y1="3145.21" x2="3920.58" y2="3469.44">
   <stop offset="0" style="stop-opacity:1; stop-color:white"/>
   <stop offset="1" style="stop-opacity:0; stop-color:white"/>
  </linearGradient>
      <rect style="fill:url(#id2)" x="2621.15" y="2669.66" width="1143.23" height="1148.84"/>
     </mask>
   <clipPath id="id3">
    <path d="M3447.48 11.02c481.72,39.98 929.34,185.85 1322.18,412.93 86.24,49.83 227.31,135.36 356.46,226.57 246.5,174 417.31,347.2 389.93,677.09 -30.43,366.72 -350.92,639.45 -715.8,609.17 -278.25,-23.1 -400.3,-198.44 -617.69,-336.26 -1197.3,-758.97 -2747.83,15.82 -2866.28,1443.14 -86,1036.09 680,1945.35 1710.94,2030.91 374.11,31.05 731.7,-50.71 1039.56,-216.94 174.59,-94.24 277.78,-181.02 416.65,-316.45 151.71,-147.82 285.63,-263.37 566.74,-240.04 364.87,30.28 636.01,352.14 605.58,718.84 -30.13,362.95 -417.45,642.39 -700.43,833.61 -578.65,390.98 -1288.31,594.71 -2036.95,532.57 -1751.71,-145.38 -3053.28,-1690.35 -2907.18,-3450.82 146.11,-1760.44 1684.58,-3069.7 3436.29,-2924.32z"/>
   </clipPath>
     <mask id="id4">
  <linearGradient id="id5" gradientUnits="userSpaceOnUse" x1="925.69" y1="2635.05" x2="5234.54" y2="5822.35">
   <stop offset="0" style="stop-opacity:1; stop-color:white"/>
   <stop offset="1" style="stop-opacity:0; stop-color:white"/>
  </linearGradient>
      <rect style="fill:url(#id5)" x="-1763.82" y="-1140.27" width="10937.91" height="9246.25"/>
     </mask>
 </defs>
 <g id="Capa_x0020_1">
  <metadata id="CorelCorpID_0Corel-Layer"/>
  <path class="fil0" d="M3192.77 2711.31c292.77,0 530.12,238.53 530.12,532.76 0,294.24 -237.34,532.77 -530.12,532.77 -292.78,0 -530.13,-238.53 -530.13,-532.77 0,-294.23 237.34,-532.76 530.13,-532.76z"/>
  <g style="clip-path:url(#id0)">
   <g id="_2897077034464">
    <path id="_1" class="fil1" style="mask:url(#id1)" d="M3192.77 2680.17c309.89,0 561.1,252.47 561.1,563.91 0,311.44 -251.21,563.92 -561.1,563.92 -309.9,0 -561.11,-252.47 -561.11,-563.92 0,-311.43 251.21,-563.91 561.11,-563.91z"/>
   </g>
  </g>
  <path class="fil2" d="M3192.77 2711.31c292.77,0 530.12,238.53 530.12,532.76 0,294.24 -237.34,532.77 -530.12,532.77 -292.78,0 -530.13,-238.53 -530.13,-532.77 0,-294.23 237.34,-532.76 530.13,-532.76z"/>
  <path class="fil3" d="M6530.35 3808.04c-114.99,55.61 -265.67,83.42 -451.31,83.42 -242,0 -432.52,-71.02 -571.17,-213.45 -139.04,-142.41 -208.18,-332.18 -208.18,-569.29 0,-252.53 77.79,-457.32 233.73,-614.39 155.95,-157.07 358.49,-235.61 607.25,-235.61 154.07,0 284.08,19.53 389.68,58.61l0 342.34c-105.59,-63.13 -225.84,-94.7 -361.12,-94.7 -148.06,0 -267.93,46.59 -358.87,139.79 -90.94,93.19 -136.4,219.45 -136.4,378.78 0,152.56 42.84,274.31 128.89,364.88 85.67,90.56 201.42,136.03 346.84,136.03 138.66,0 265.67,-33.83 380.66,-101.45l0 325.04zm1465.14 -1522.63l-514.06 1017.21 0 561.41 -355.48 0 0 -555.02 -500.9 -1023.6 406.21 0 254.41 588.83c4.51,10.9 16.53,54.12 36.07,128.89l4.51 0c9.76,-52.98 21.04,-94.32 34.19,-124.38l258.91 -593.34 376.15 0zm178.49 1578.62l0 -1578.62 559.53 0c560.65,0 840.98,256.28 840.98,769.58 0,245.76 -76.66,441.91 -229.6,588.83 -152.94,146.93 -356.61,220.2 -611.38,220.2l-559.53 0zm355.86 -1289.27l0 1000.68 176.24 0c154.06,0 274.69,-46.22 362.62,-138.66 87.55,-92.44 131.52,-218.32 131.52,-377.66 0,-150.31 -43.59,-268.68 -130.39,-354.73 -87.17,-86.43 -208.93,-129.64 -366,-129.64l-173.98 0z"/>
  <path class="fil4" d="M3447.48 11.02c481.72,39.98 929.34,185.85 1322.18,412.93 86.24,49.83 227.31,135.36 356.46,226.57 246.5,174 417.31,347.2 389.93,677.09 -30.43,366.72 -350.92,639.45 -715.8,609.17 -278.25,-23.1 -400.3,-198.44 -617.69,-336.26 -1197.3,-758.97 -2747.83,15.82 -2866.28,1443.14 -86,1036.09 680,1945.35 1710.94,2030.91 374.11,31.05 731.7,-50.71 1039.56,-216.94 174.59,-94.24 277.78,-181.02 416.65,-316.45 151.71,-147.82 285.63,-263.37 566.74,-240.04 364.87,30.28 636.01,352.14 605.58,718.84 -30.13,362.95 -417.45,642.39 -700.43,833.61 -578.65,390.98 -1288.31,594.71 -2036.95,532.57 -1751.71,-145.38 -3053.28,-1690.35 -2907.18,-3450.82 146.11,-1760.44 1684.58,-3069.7 3436.29,-2924.32z"/>
  <g style="clip-path:url(#id3)">
   <g id="_2897077044544">
    <polygon id="_1_0" class="fil1 str0" style="mask:url(#id4)" points="-1058.07,-1129.76 9163.59,-281.41 8468.34,8095.47 -1753.31,7247.14 "/>
   </g>
  </g>
  <path class="fil2" d="M3447.48 11.02c481.72,39.98 929.34,185.85 1322.18,412.93 86.24,49.83 227.31,135.36 356.46,226.57 246.5,174 417.31,347.2 389.93,677.09 -30.43,366.72 -350.92,639.45 -715.8,609.17 -278.25,-23.1 -400.3,-198.44 -617.69,-336.26 -1197.3,-758.97 -2747.83,15.82 -2866.28,1443.14 -86,1036.09 680,1945.35 1710.94,2030.91 374.11,31.05 731.7,-50.71 1039.56,-216.94 174.59,-94.24 277.78,-181.02 416.65,-316.45 151.71,-147.82 285.63,-263.37 566.74,-240.04 364.87,30.28 636.01,352.14 605.58,718.84 -30.13,362.95 -417.45,642.39 -700.43,833.61 -578.65,390.98 -1288.31,594.71 -2036.95,532.57 -1751.71,-145.38 -3053.28,-1690.35 -2907.18,-3450.82 146.11,-1760.44 1684.58,-3069.7 3436.29,-2924.32z"/>
  <circle class="fil2 str1" cx="9472.65" cy="1932.55" r="299.9"/>
  <path class="fil5" d="M9634.4 2089.56l-65.51 0 -51.29 -89.16c-9.03,-15.66 -17.25,-26.35 -24.77,-32.35 -7.51,-5.91 -16.3,-9.1 -26.44,-9.58l-29.73 0 0 131.1 -56.88 0 0 -335.61 109.77 0c34.75,0 62.15,7.75 82.05,23.41 19.89,15.57 29.8,38.83 29.8,69.74 0,23.09 -6.32,42.66 -19.09,58.72 -12.7,16.06 -30.12,27.88 -52.25,35.39l0 0.87c8.39,3.6 16.06,9.11 23,16.54 6.96,7.43 13.43,16.22 19.33,26.52l62 104.42zm-197.73 -289.76l0 112.56 43.3 0c17.9,0 32.67,-5.67 44.18,-16.93 11.59,-11.35 17.34,-25.65 17.34,-42.99 0,-16.7 -5.12,-29.63 -15.42,-38.83 -10.31,-9.18 -25.32,-13.82 -45.22,-13.82l-44.19 0z"/>
 </g>
</svg>
