<?xml version="1.0" encoding="UTF-8"?>
<!DOCTYPE svg PUBLIC "-//W3C//DTD SVG 1.1//EN" "http://www.w3.org/Graphics/SVG/1.1/DTD/svg11.dtd">
<!-- Creator: CorelDRAW 2021.5 -->
<svg xmlns="http://www.w3.org/2000/svg" xml:space="preserve" width="91.1167mm" height="60.8795mm" version="1.1" style="shape-rendering:geometricPrecision; text-rendering:geometricPrecision; image-rendering:optimizeQuality; fill-rule:evenodd; clip-rule:evenodd"
viewBox="0 0 9362.69 6255.67"
 xmlns:xlink="http://www.w3.org/1999/xlink"
 xmlns:xodm="http://www.corel.com/coreldraw/odm/2003">
 <defs>
  <style type="text/css">
   <![CDATA[
    .str0 {stroke:black;stroke-width:20.55;stroke-miterlimit:22.9256}
    .fil2 {fill:none}
    .fil4 {fill:#011B34}
    .fil0 {fill:#011B34}
    .fil1 {fill:#1CB8EB}
    .fil3 {fill:#2B83C4;fill-rule:nonzero}
   ]]>
  </style>
   <clipPath id="id0">
    <path d="M3122.15 2651.33c286.3,0 518.39,233.25 518.39,520.98 0,287.73 -232.09,520.99 -518.39,520.99 -286.31,0 -518.4,-233.25 -518.4,-520.99 0,-287.72 232.09,-520.98 518.4,-520.98z"/>
   </clipPath>
     <mask id="id1">
  <linearGradient id="id2" gradientUnits="userSpaceOnUse" x1="2726.46" y1="3075.63" x2="3833.85" y2="3392.69">
   <stop offset="0" style="stop-opacity:1; stop-color:white"/>
   <stop offset="1" style="stop-opacity:0; stop-color:white"/>
  </linearGradient>
      <rect style="fill:url(#id2)" x="2563.17" y="2610.6" width="1117.94" height="1123.43"/>
     </mask>
   <clipPath id="id3">
    <path d="M3371.21 10.78c471.06,39.1 908.79,181.74 1292.93,403.8 84.33,48.73 222.28,132.37 348.58,221.56 241.04,170.15 408.08,339.52 381.3,662.11 -29.76,358.6 -343.16,625.3 -699.97,595.69 -272.1,-22.59 -391.44,-194.05 -604.02,-328.83 -1170.81,-742.18 -2687.04,15.47 -2802.88,1411.22 -84.09,1013.17 664.96,1902.31 1673.1,1985.99 365.84,30.36 715.51,-49.59 1016.56,-212.14 170.73,-92.15 271.63,-177.02 407.43,-309.45 148.36,-144.55 279.31,-257.54 554.2,-234.73 356.8,29.61 621.94,344.35 592.19,702.94 -29.46,354.93 -408.21,628.18 -684.93,815.17 -565.85,382.33 -1259.81,581.55 -1991.89,520.79 -1712.96,-142.16 -2985.74,-1652.96 -2842.87,-3374.48 142.88,-1721.49 1647.32,-3001.79 3360.27,-2859.63z"/>
   </clipPath>
     <mask id="id4">
  <linearGradient id="id5" gradientUnits="userSpaceOnUse" x1="905.21" y1="2576.76" x2="5118.75" y2="5693.55">
   <stop offset="0" style="stop-opacity:1; stop-color:white"/>
   <stop offset="1" style="stop-opacity:0; stop-color:white"/>
  </linearGradient>
      <rect style="fill:url(#id5)" x="-1724.8" y="-1115.05" width="10695.96" height="9041.71"/>
     </mask>
 </defs>
 <g id="Capa_x0020_1">
  <metadata id="CorelCorpID_0Corel-Layer"/>
  <path class="fil0" d="M3122.15 2651.33c286.3,0 518.39,233.25 518.39,520.98 0,287.73 -232.09,520.99 -518.39,520.99 -286.31,0 -518.4,-233.25 -518.4,-520.99 0,-287.72 232.09,-520.98 518.4,-520.98z"/>
  <g style="clip-path:url(#id0)">
   <g id="_2898075028224">
    <path id="_1" class="fil1" style="mask:url(#id1)" d="M3122.15 2620.88c303.03,0 548.69,246.89 548.69,551.43 0,304.56 -245.66,551.44 -548.69,551.44 -303.04,0 -548.7,-246.89 -548.7,-551.44 0,-304.55 245.66,-551.43 548.7,-551.43z"/>
   </g>
  </g>
  <path class="fil2" d="M3122.15 2651.33c286.3,0 518.39,233.25 518.39,520.98 0,287.73 -232.09,520.99 -518.39,520.99 -286.31,0 -518.4,-233.25 -518.4,-520.99 0,-287.72 232.09,-520.98 518.4,-520.98z"/>
  <path class="fil3" d="M6385.89 3723.8c-112.44,54.38 -259.8,81.58 -441.32,81.58 -236.64,0 -422.95,-69.45 -558.53,-208.73 -135.97,-139.26 -203.58,-324.83 -203.58,-556.7 0,-246.94 76.07,-447.2 228.56,-600.8 152.5,-153.6 350.56,-230.4 593.82,-230.4 150.66,0 277.8,19.1 381.06,57.32l0 334.77c-103.26,-61.74 -220.84,-92.6 -353.13,-92.6 -144.78,0 -262,45.56 -350.93,136.69 -88.92,91.13 -133.39,214.59 -133.39,370.4 0,149.19 41.89,268.24 126.04,356.81 83.78,88.55 196.96,133.02 339.16,133.02 135.6,0 259.8,-33.08 372.24,-99.21l0 317.85zm1432.73 -1488.95l-502.69 994.71 0 548.99 -347.62 0 0 -542.74 -489.82 -1000.96 397.22 0 248.78 575.81c4.41,10.66 16.16,52.92 35.28,126.04l4.41 0c9.55,-51.81 20.57,-92.23 33.44,-121.63l253.18 -580.22 367.83 0zm174.54 1543.7l0 -1543.7 547.15 0c548.25,0 822.38,250.61 822.38,752.56 0,240.32 -74.96,432.14 -224.52,575.81 -149.56,143.68 -348.72,215.33 -597.86,215.33l-547.15 0zm347.99 -1260.75l0 978.55 172.34 0c150.65,0 268.61,-45.2 354.6,-135.6 85.62,-90.39 128.61,-213.49 128.61,-369.3 0,-146.98 -42.62,-262.73 -127.51,-346.88 -85.25,-84.52 -204.31,-126.77 -357.91,-126.77l-170.13 0z"/>
  <path class="fil4" d="M3371.21 10.78c471.06,39.1 908.79,181.74 1292.93,403.8 84.33,48.73 222.28,132.37 348.58,221.56 241.04,170.15 408.08,339.52 381.3,662.11 -29.76,358.6 -343.16,625.3 -699.97,595.69 -272.1,-22.59 -391.44,-194.05 -604.02,-328.83 -1170.81,-742.18 -2687.04,15.47 -2802.88,1411.22 -84.09,1013.17 664.96,1902.31 1673.1,1985.99 365.84,30.36 715.51,-49.59 1016.56,-212.14 170.73,-92.15 271.63,-177.02 407.43,-309.45 148.36,-144.55 279.31,-257.54 554.2,-234.73 356.8,29.61 621.94,344.35 592.19,702.94 -29.46,354.93 -408.21,628.18 -684.93,815.17 -565.85,382.33 -1259.81,581.55 -1991.89,520.79 -1712.96,-142.16 -2985.74,-1652.96 -2842.87,-3374.48 142.88,-1721.49 1647.32,-3001.79 3360.27,-2859.63z"/>
  <g style="clip-path:url(#id3)">
   <g id="_2898075027552">
    <polygon id="_1_0" class="fil1 str0" style="mask:url(#id4)" points="-1034.66,-1104.77 8960.88,-275.19 8281.01,7916.39 -1714.53,7086.82 "/>
   </g>
  </g>
  <path class="fil2" d="M3371.21 10.78c471.06,39.1 908.79,181.74 1292.93,403.8 84.33,48.73 222.28,132.37 348.58,221.56 241.04,170.15 408.08,339.52 381.3,662.11 -29.76,358.6 -343.16,625.3 -699.97,595.69 -272.1,-22.59 -391.44,-194.05 -604.02,-328.83 -1170.81,-742.18 -2687.04,15.47 -2802.88,1411.22 -84.09,1013.17 664.96,1902.31 1673.1,1985.99 365.84,30.36 715.51,-49.59 1016.56,-212.14 170.73,-92.15 271.63,-177.02 407.43,-309.45 148.36,-144.55 279.31,-257.54 554.2,-234.73 356.8,29.61 621.94,344.35 592.19,702.94 -29.46,354.93 -408.21,628.18 -684.93,815.17 -565.85,382.33 -1259.81,581.55 -1991.89,520.79 -1712.96,-142.16 -2985.74,-1652.96 -2842.87,-3374.48 142.88,-1721.49 1647.32,-3001.79 3360.27,-2859.63z"/>
 </g>
</svg>
