<?xml version="1.0" encoding="UTF-8"?>
<!DOCTYPE svg PUBLIC "-//W3C//DTD SVG 1.1//EN" "http://www.w3.org/Graphics/SVG/1.1/DTD/svg11.dtd">
<!-- Creator: CorelDRAW 2021.5 -->
<svg xmlns="http://www.w3.org/2000/svg" xml:space="preserve" width="91.1167mm" height="60.8796mm" version="1.1" style="shape-rendering:geometricPrecision; text-rendering:geometricPrecision; image-rendering:optimizeQuality; fill-rule:evenodd; clip-rule:evenodd"
viewBox="0 0 3331.1 2225.68"
 xmlns:xlink="http://www.w3.org/1999/xlink"
 xmlns:xodm="http://www.corel.com/coreldraw/odm/2003">
 <defs>
  <style type="text/css">
   <![CDATA[
    .str0 {stroke:black;stroke-width:7.31;stroke-miterlimit:22.9256}
    .fil2 {fill:none}
    .fil0 {fill:black}
    .fil1 {fill:#999999}
    .fil3 {fill:#666666;fill-rule:nonzero}
   ]]>
  </style>
   <clipPath id="id0">
    <path d="M1110.81 943.31c101.86,0 184.43,82.99 184.43,185.36 0,102.37 -82.57,185.36 -184.43,185.36 -101.86,0 -184.44,-82.99 -184.44,-185.36 0,-102.37 82.57,-185.36 184.44,-185.36z"/>
   </clipPath>
     <mask id="id1">
  <linearGradient id="id2" gradientUnits="userSpaceOnUse" x1="970.03" y1="1094.27" x2="1364.03" y2="1207.07">
   <stop offset="0" style="stop-opacity:1; stop-color:white"/>
   <stop offset="1" style="stop-opacity:0; stop-color:white"/>
  </linearGradient>
      <rect style="fill:url(#id2)" x="911.94" y="928.82" width="397.75" height="399.7"/>
     </mask>
   <clipPath id="id3">
    <path d="M1199.43 3.84c167.6,13.91 323.33,64.66 460.01,143.66 30,17.34 79.08,47.09 124.02,78.83 85.76,60.54 145.19,120.8 135.66,235.57 -10.59,127.59 -122.09,222.47 -249.04,211.94 -96.81,-8.04 -139.27,-69.04 -214.9,-116.99 -416.56,-264.06 -956.01,5.51 -997.22,502.09 -29.92,360.47 236.58,676.81 595.26,706.58 130.16,10.8 254.57,-17.64 361.68,-75.48 60.74,-32.79 96.64,-62.98 144.96,-110.1 52.78,-51.43 99.37,-91.63 197.18,-83.51 126.94,10.54 221.28,122.52 210.69,250.09 -10.48,126.28 -145.24,223.5 -243.69,290.02 -201.32,136.03 -448.22,206.91 -708.69,185.29 -609.44,-50.58 -1062.28,-588.1 -1011.45,-1200.59 50.83,-612.48 586.09,-1067.99 1195.53,-1017.41z"/>
   </clipPath>
     <mask id="id4">
  <linearGradient id="id5" gradientUnits="userSpaceOnUse" x1="322.06" y1="916.78" x2="1821.17" y2="2025.68">
   <stop offset="0" style="stop-opacity:1; stop-color:white"/>
   <stop offset="1" style="stop-opacity:0; stop-color:white"/>
  </linearGradient>
      <rect style="fill:url(#id5)" x="-613.66" y="-396.71" width="3805.46" height="3216.9"/>
     </mask>
 </defs>
 <g id="Capa_x0020_1">
  <metadata id="CorelCorpID_0Corel-Layer"/>
  <path class="fil0" d="M1110.81 943.31c101.86,0 184.43,82.99 184.43,185.36 0,102.37 -82.57,185.36 -184.43,185.36 -101.86,0 -184.44,-82.99 -184.44,-185.36 0,-102.37 82.57,-185.36 184.44,-185.36z"/>
  <g style="clip-path:url(#id0)">
   <g id="_2861834207616">
    <path id="_1" class="fil1" style="mask:url(#id1)" d="M1110.81 932.47c107.82,0 195.22,87.84 195.22,196.19 0,108.36 -87.4,196.2 -195.22,196.2 -107.82,0 -195.22,-87.84 -195.22,-196.2 0,-108.35 87.4,-196.19 195.22,-196.19z"/>
   </g>
  </g>
  <path class="fil2" d="M1110.81 943.31c101.86,0 184.43,82.99 184.43,185.36 0,102.37 -82.57,185.36 -184.43,185.36 -101.86,0 -184.44,-82.99 -184.44,-185.36 0,-102.37 82.57,-185.36 184.44,-185.36z"/>
  <path class="fil3" d="M2272 1324.87c-40.01,19.35 -92.43,29.02 -157.02,29.02 -84.19,0 -150.48,-24.71 -198.72,-74.26 -48.37,-49.55 -72.43,-115.57 -72.43,-198.06 0,-87.86 27.06,-159.11 81.32,-213.75 54.26,-54.65 124.72,-81.97 211.27,-81.97 53.6,0 98.84,6.8 135.57,20.39l0 119.1c-36.74,-21.96 -78.57,-32.95 -125.64,-32.95 -51.51,0 -93.22,16.21 -124.86,48.63 -31.64,32.42 -47.46,76.35 -47.46,131.78 0,53.08 14.9,95.44 44.84,126.95 29.81,31.51 70.08,47.33 120.67,47.33 48.24,0 92.43,-11.77 132.44,-35.3l0 113.09zm509.74 -529.75l-178.85 353.9 0 195.32 -123.68 0 0 -193.1 -174.27 -356.12 141.32 0 88.51 204.86c1.57,3.79 5.75,18.83 12.55,44.84l1.57 0c3.4,-18.43 7.32,-32.82 11.9,-43.27l90.08 -206.43 130.87 0zm62.1 549.22l0 -549.22 194.67 0c195.06,0 292.59,89.16 292.59,267.75 0,85.5 -26.67,153.75 -79.88,204.86 -53.21,51.12 -124.07,76.61 -212.71,76.61l-194.67 0zm123.81 -448.56l0 348.15 61.32 0c53.6,0 95.57,-16.08 126.16,-48.24 30.46,-32.16 45.76,-75.96 45.76,-131.39 0,-52.29 -15.16,-93.48 -45.37,-123.41 -30.33,-30.07 -72.69,-45.1 -127.34,-45.1l-60.53 0z"/>
  <path class="fil0" d="M1199.43 3.84c167.6,13.91 323.33,64.66 460.01,143.66 30,17.34 79.08,47.09 124.02,78.83 85.76,60.54 145.19,120.8 135.66,235.57 -10.59,127.59 -122.09,222.47 -249.04,211.94 -96.81,-8.04 -139.27,-69.04 -214.9,-116.99 -416.56,-264.06 -956.01,5.51 -997.22,502.09 -29.92,360.47 236.58,676.81 595.26,706.58 130.16,10.8 254.57,-17.64 361.68,-75.48 60.74,-32.79 96.64,-62.98 144.96,-110.1 52.78,-51.43 99.37,-91.63 197.18,-83.51 126.94,10.54 221.28,122.52 210.69,250.09 -10.48,126.28 -145.24,223.5 -243.69,290.02 -201.32,136.03 -448.22,206.91 -708.69,185.29 -609.44,-50.58 -1062.28,-588.1 -1011.45,-1200.59 50.83,-612.48 586.09,-1067.99 1195.53,-1017.41z"/>
  <g style="clip-path:url(#id3)">
   <g id="_2861834213280">
    <polygon id="_1_0" class="fil1 str0" style="mask:url(#id4)" points="-368.12,-393.06 3188.14,-97.9 2946.26,2816.54 -610,2521.39 "/>
   </g>
  </g>
  <path class="fil2" d="M1199.43 3.84c167.6,13.91 323.33,64.66 460.01,143.66 30,17.34 79.08,47.09 124.02,78.83 85.76,60.54 145.19,120.8 135.66,235.57 -10.59,127.59 -122.09,222.47 -249.04,211.94 -96.81,-8.04 -139.27,-69.04 -214.9,-116.99 -416.56,-264.06 -956.01,5.51 -997.22,502.09 -29.92,360.47 236.58,676.81 595.26,706.58 130.16,10.8 254.57,-17.64 361.68,-75.48 60.74,-32.79 96.64,-62.98 144.96,-110.1 52.78,-51.43 99.37,-91.63 197.18,-83.51 126.94,10.54 221.28,122.52 210.69,250.09 -10.48,126.28 -145.24,223.5 -243.69,290.02 -201.32,136.03 -448.22,206.91 -708.69,185.29 -609.44,-50.58 -1062.28,-588.1 -1011.45,-1200.59 50.83,-612.48 586.09,-1067.99 1195.53,-1017.41z"/>
 </g>
</svg>
