<?xml version="1.0" encoding="UTF-8"?>
<!DOCTYPE svg PUBLIC "-//W3C//DTD SVG 1.1//EN" "http://www.w3.org/Graphics/SVG/1.1/DTD/svg11.dtd">
<!-- Creator: CorelDRAW 2021.5 -->
<svg xmlns="http://www.w3.org/2000/svg" xml:space="preserve" width="91.9236mm" height="60.8796mm" version="1.1" style="shape-rendering:geometricPrecision; text-rendering:geometricPrecision; image-rendering:optimizeQuality; fill-rule:evenodd; clip-rule:evenodd"
viewBox="0 0 3390.36 2245.39"
 xmlns:xlink="http://www.w3.org/1999/xlink"
 xmlns:xodm="http://www.corel.com/coreldraw/odm/2003">
 <defs>
  <style type="text/css">
   <![CDATA[
    .str1 {stroke:black;stroke-width:13.01;stroke-miterlimit:22.9256}
    .str0 {stroke:black;stroke-width:7.38;stroke-miterlimit:22.9256}
    .fil2 {fill:none}
    .fil0 {fill:black}
    .fil1 {fill:#999999}
    .fil3 {fill:black;fill-rule:nonzero}
   ]]>
  </style>
   <clipPath id="id0">
    <path d="M1120.65 951.66c102.76,0 186.07,83.72 186.07,187 0,103.28 -83.31,187 -186.07,187 -102.77,0 -186.07,-83.72 -186.07,-187 0,-103.27 83.31,-187 186.07,-187z"/>
   </clipPath>
     <mask id="id1">
  <linearGradient id="id2" gradientUnits="userSpaceOnUse" x1="-653.12" y1="1931.45" x2="-255.64" y2="2045.26">
   <stop offset="0" style="stop-opacity:1; stop-color:white"/>
   <stop offset="1" style="stop-opacity:0; stop-color:white"/>
  </linearGradient>
      <rect style="fill:url(#id2)" x="-711.73" y="1764.54" width="401.27" height="403.24"/>
     </mask>
   <clipPath id="id3">
    <path d="M1210.05 3.87c169.08,14.03 326.2,65.23 464.08,144.94 30.27,17.49 79.78,47.51 125.12,79.53 86.52,61.07 146.47,121.87 136.86,237.66 -10.68,128.72 -123.17,224.44 -251.24,213.81 -97.66,-8.11 -140.5,-69.65 -216.81,-118.03 -420.25,-266.39 -964.47,5.55 -1006.05,506.54 -30.18,363.66 238.68,682.81 600.53,712.84 131.31,10.9 256.82,-17.8 364.88,-76.14 61.28,-33.08 97.5,-63.54 146.24,-111.07 53.25,-51.88 100.25,-92.44 198.92,-84.25 128.07,10.63 223.24,123.6 212.56,252.31 -10.57,127.4 -146.52,225.48 -245.85,292.59 -203.1,137.23 -452.19,208.74 -714.96,186.93 -614.84,-51.03 -1071.69,-593.3 -1020.41,-1211.22 51.28,-617.91 591.28,-1077.45 1206.12,-1026.42z"/>
   </clipPath>
     <mask id="id4">
  <linearGradient id="id5" gradientUnits="userSpaceOnUse" x1="-4399.73" y1="1617.84" x2="-2887.35" y2="2736.57">
   <stop offset="0" style="stop-opacity:1; stop-color:white"/>
   <stop offset="1" style="stop-opacity:0; stop-color:white"/>
  </linearGradient>
      <rect style="fill:url(#id5)" x="-5343.74" y="292.72" width="3839.16" height="3245.39"/>
     </mask>
 </defs>
 <g id="Capa_x0020_1">
  <metadata id="CorelCorpID_0Corel-Layer"/>
  <path class="fil0" d="M1120.65 951.66c102.76,0 186.07,83.72 186.07,187 0,103.28 -83.31,187 -186.07,187 -102.77,0 -186.07,-83.72 -186.07,-187 0,-103.27 83.31,-187 186.07,-187z"/>
  <g style="clip-path:url(#id0)">
   <g id="_2862405271888">
    <path id="_1" class="fil1" style="mask:url(#id1)" d="M-511.09 1768.23c108.77,0 196.94,88.62 196.94,197.93 0,109.32 -88.17,197.93 -196.94,197.93 -108.77,0 -196.95,-88.62 -196.95,-197.93 0,-109.31 88.17,-197.93 196.95,-197.93z"/>
   </g>
  </g>
  <path class="fil2" d="M1120.65 951.66c102.76,0 186.07,83.72 186.07,187 0,103.28 -83.31,187 -186.07,187 -102.77,0 -186.07,-83.72 -186.07,-187 0,-103.27 83.31,-187 186.07,-187z"/>
  <path class="fil3" d="M2292.12 1336.61c-40.36,19.52 -93.25,29.28 -158.41,29.28 -84.94,0 -151.81,-24.93 -200.48,-74.92 -48.8,-49.99 -73.07,-116.59 -73.07,-199.82 0,-88.64 27.3,-160.52 82.04,-215.65 54.74,-55.13 125.83,-82.7 213.14,-82.7 54.08,0 99.71,6.86 136.77,20.57l0 120.16c-37.06,-22.16 -79.27,-33.24 -126.75,-33.24 -51.97,0 -94.04,16.35 -125.96,49.06 -31.92,32.71 -47.88,77.03 -47.88,132.95 0,53.55 15.04,96.28 45.24,128.07 30.07,31.79 70.7,47.74 121.74,47.74 48.67,0 93.25,-11.87 133.61,-35.61l0 114.09zm514.26 -534.44l-180.43 357.04 0 197.05 -124.77 0 0 -194.81 -175.81 -359.28 142.58 0 89.3 206.68c1.58,3.82 5.8,18.99 12.66,45.24l1.58 0c3.43,-18.6 7.38,-33.11 12,-43.66l90.87 -208.26 132.03 0zm62.65 554.09l0 -554.09 196.39 0c196.79,0 295.18,89.95 295.18,270.12 0,86.26 -26.91,155.11 -80.59,206.68 -53.68,51.57 -125.17,77.29 -214.59,77.29l-196.39 0zm124.91 -452.53l0 351.23 61.86 0c54.07,0 96.41,-16.22 127.28,-48.67 30.73,-32.45 46.16,-76.63 46.16,-132.56 0,-52.76 -15.3,-94.3 -45.77,-124.51 -30.6,-30.34 -73.33,-45.5 -128.47,-45.5l-61.07 0z"/>
  <path class="fil0" d="M1210.05 3.87c169.08,14.03 326.2,65.23 464.08,144.94 30.27,17.49 79.78,47.51 125.12,79.53 86.52,61.07 146.47,121.87 136.86,237.66 -10.68,128.72 -123.17,224.44 -251.24,213.81 -97.66,-8.11 -140.5,-69.65 -216.81,-118.03 -420.25,-266.39 -964.47,5.55 -1006.05,506.54 -30.18,363.66 238.68,682.81 600.53,712.84 131.31,10.9 256.82,-17.8 364.88,-76.14 61.28,-33.08 97.5,-63.54 146.24,-111.07 53.25,-51.88 100.25,-92.44 198.92,-84.25 128.07,10.63 223.24,123.6 212.56,252.31 -10.57,127.4 -146.52,225.48 -245.85,292.59 -203.1,137.23 -452.19,208.74 -714.96,186.93 -614.84,-51.03 -1071.69,-593.3 -1020.41,-1211.22 51.28,-617.91 591.28,-1077.45 1206.12,-1026.42z"/>
  <g style="clip-path:url(#id3)">
   <g id="_2862405280192">
    <polygon id="_1_0" class="fil1 str0" style="mask:url(#id4)" points="-5096.02,296.41 -1508.27,594.18 -1752.3,3534.42 -5340.05,3236.66 "/>
   </g>
  </g>
  <path class="fil2" d="M1210.05 3.87c169.08,14.03 326.2,65.23 464.08,144.94 30.27,17.49 79.78,47.51 125.12,79.53 86.52,61.07 146.47,121.87 136.86,237.66 -10.68,128.72 -123.17,224.44 -251.24,213.81 -97.66,-8.11 -140.5,-69.65 -216.81,-118.03 -420.25,-266.39 -964.47,5.55 -1006.05,506.54 -30.18,363.66 238.68,682.81 600.53,712.84 131.31,10.9 256.82,-17.8 364.88,-76.14 61.28,-33.08 97.5,-63.54 146.24,-111.07 53.25,-51.88 100.25,-92.44 198.92,-84.25 128.07,10.63 223.24,123.6 212.56,252.31 -10.57,127.4 -146.52,225.48 -245.85,292.59 -203.1,137.23 -452.19,208.74 -714.96,186.93 -614.84,-51.03 -1071.69,-593.3 -1020.41,-1211.22 51.28,-617.91 591.28,-1077.45 1206.12,-1026.42z"/>
  <circle class="fil2 str1" cx="3278.59" cy="620.5" r="105.26"/>
  <path class="fil3" d="M3335.37 675.61l-22.99 0 -18 -31.29c-3.17,-5.5 -6.06,-9.25 -8.69,-11.36 -2.64,-2.07 -5.72,-3.19 -9.28,-3.36l-10.43 0 0 46.01 -19.96 0 0 -117.8 38.53 0c12.2,0 21.82,2.72 28.8,8.22 6.98,5.47 10.46,13.63 10.46,24.48 0,8.1 -2.22,14.97 -6.7,20.61 -4.46,5.64 -10.57,9.78 -18.34,12.42l0 0.31c2.94,1.27 5.64,3.2 8.07,5.81 2.44,2.61 4.71,5.69 6.79,9.31l21.76 36.65zm-69.4 -101.7l0 39.51 15.2 0c6.28,0 11.47,-1.99 15.51,-5.94 4.07,-3.98 6.09,-9 6.09,-15.09 0,-5.86 -1.8,-10.4 -5.41,-13.63 -3.62,-3.22 -8.89,-4.85 -15.87,-4.85l-15.51 0z"/>
 </g>
</svg>
