<?xml version="1.0" encoding="UTF-8"?>
<!DOCTYPE svg PUBLIC "-//W3C//DTD SVG 1.1//EN" "http://www.w3.org/Graphics/SVG/1.1/DTD/svg11.dtd">
<!-- Creator: CorelDRAW 2021.5 -->
<svg xmlns="http://www.w3.org/2000/svg" xml:space="preserve" width="53.8458mm" height="60.8796mm" version="1.1" style="shape-rendering:geometricPrecision; text-rendering:geometricPrecision; image-rendering:optimizeQuality; fill-rule:evenodd; clip-rule:evenodd"
viewBox="0 0 278.54 314.93"
 xmlns:xlink="http://www.w3.org/1999/xlink"
 xmlns:xodm="http://www.corel.com/coreldraw/odm/2003">
 <defs>
  <style type="text/css">
   <![CDATA[
    .str0 {stroke:black;stroke-width:1.03;stroke-miterlimit:22.9256}
    .fil1 {fill:none}
    .fil3 {fill:#999999}
    .fil0 {fill:white}
    .fil2 {fill:white}
   ]]>
  </style>
   <clipPath id="id0">
    <path d="M157.18 133.48c14.41,0 26.1,11.74 26.1,26.23 0,14.49 -11.68,26.23 -26.1,26.23 -14.41,0 -26.1,-11.74 -26.1,-26.23 0,-14.48 11.68,-26.23 26.1,-26.23z"/>
   </clipPath>
     <mask id="id1">
  <linearGradient id="id2" gradientUnits="userSpaceOnUse" x1="65.67" y1="176.9" x2="121.42" y2="192.86">
   <stop offset="0" style="stop-opacity:1; stop-color:white"/>
   <stop offset="1" style="stop-opacity:0; stop-color:white"/>
  </linearGradient>
      <rect style="fill:url(#id2)" x="57.45" y="153.49" width="56.28" height="56.56"/>
     </mask>
   <clipPath id="id3">
    <path d="M169.72 0.54c23.71,1.97 45.75,9.15 65.09,20.33 4.25,2.45 11.19,6.66 17.55,11.15 12.13,8.57 20.54,17.09 19.2,33.33 -1.5,18.05 -17.28,31.48 -35.24,29.99 -13.7,-1.14 -19.71,-9.77 -30.41,-16.55 -58.94,-37.36 -135.27,0.78 -141.11,71.04 -4.23,51.01 33.48,95.77 84.23,99.98 18.42,1.53 36.02,-2.5 51.18,-10.68 8.59,-4.64 13.67,-8.91 20.51,-15.58 7.47,-7.28 14.06,-12.97 27.9,-11.82 17.96,1.49 31.31,17.34 29.81,35.39 -1.48,17.87 -20.55,31.62 -34.48,41.04 -28.49,19.25 -63.42,29.28 -100.28,26.22 -86.24,-7.16 -150.31,-83.21 -143.12,-169.88 7.19,-86.67 82.93,-151.12 169.17,-143.96z"/>
   </clipPath>
     <mask id="id4">
  <linearGradient id="id5" gradientUnits="userSpaceOnUse" x1="277.47" y1="292.5" x2="205.12" y2="194.55">
   <stop offset="0" style="stop-opacity:1; stop-color:white"/>
   <stop offset="0.729412" style="stop-opacity:0.501961; stop-color:white"/>
   <stop offset="1" style="stop-opacity:0; stop-color:white"/>
  </linearGradient>
      <rect style="fill:url(#id5)" x="-86.83" y="-56.13" width="538.47" height="455.19"/>
     </mask>
 </defs>
 <g id="Capa_x0020_1">
  <metadata id="CorelCorpID_0Corel-Layer"/>
  <path class="fil0" d="M157.18 133.48c14.41,0 26.1,11.74 26.1,26.23 0,14.49 -11.68,26.23 -26.1,26.23 -14.41,0 -26.1,-11.74 -26.1,-26.23 0,-14.48 11.68,-26.23 26.1,-26.23z"/>
  <g style="clip-path:url(#id0)">
   <g id="_2898417204576">
    <path id="_1" class="fil0" style="mask:url(#id1)" d="M85.59 154.01c15.26,0 27.62,12.43 27.62,27.76 0,15.33 -12.37,27.76 -27.62,27.76 -15.26,0 -27.62,-12.43 -27.62,-27.76 0,-15.33 12.37,-27.76 27.62,-27.76z"/>
   </g>
  </g>
  <path class="fil1" d="M157.18 133.48c14.41,0 26.1,11.74 26.1,26.23 0,14.49 -11.68,26.23 -26.1,26.23 -14.41,0 -26.1,-11.74 -26.1,-26.23 0,-14.48 11.68,-26.23 26.1,-26.23z"/>
  <path class="fil2" d="M169.72 0.54c23.71,1.97 45.75,9.15 65.09,20.33 4.25,2.45 11.19,6.66 17.55,11.15 12.13,8.57 20.54,17.09 19.2,33.33 -1.5,18.05 -17.28,31.48 -35.24,29.99 -13.7,-1.14 -19.71,-9.77 -30.41,-16.55 -58.94,-37.36 -135.27,0.78 -141.11,71.04 -4.23,51.01 33.48,95.77 84.23,99.98 18.42,1.53 36.02,-2.5 51.18,-10.68 8.59,-4.64 13.67,-8.91 20.51,-15.58 7.47,-7.28 14.06,-12.97 27.9,-11.82 17.96,1.49 31.31,17.34 29.81,35.39 -1.48,17.87 -20.55,31.62 -34.48,41.04 -28.49,19.25 -63.42,29.28 -100.28,26.22 -86.24,-7.16 -150.31,-83.21 -143.12,-169.88 7.19,-86.67 82.93,-151.12 169.17,-143.96z"/>
  <g style="clip-path:url(#id3)">
   <g id="_2898417207072">
    <polygon id="_1_0" class="fil3 str0" style="mask:url(#id4)" points="416.89,398.54 -86.32,356.77 -52.09,-55.62 451.12,-13.85 "/>
   </g>
  </g>
  <path class="fil1" d="M169.72 0.54c23.71,1.97 45.75,9.15 65.09,20.33 4.25,2.45 11.19,6.66 17.55,11.15 12.13,8.57 20.54,17.09 19.2,33.33 -1.5,18.05 -17.28,31.48 -35.24,29.99 -13.7,-1.14 -19.71,-9.77 -30.41,-16.55 -58.94,-37.36 -135.27,0.78 -141.11,71.04 -4.23,51.01 33.48,95.77 84.23,99.98 18.42,1.53 36.02,-2.5 51.18,-10.68 8.59,-4.64 13.67,-8.91 20.51,-15.58 7.47,-7.28 14.06,-12.97 27.9,-11.82 17.96,1.49 31.31,17.34 29.81,35.39 -1.48,17.87 -20.55,31.62 -34.48,41.04 -28.49,19.25 -63.42,29.28 -100.28,26.22 -86.24,-7.16 -150.31,-83.21 -143.12,-169.88 7.19,-86.67 82.93,-151.12 169.17,-143.96z"/>
 </g>
</svg>
