<?xml version="1.0" encoding="UTF-8"?>
<!DOCTYPE svg PUBLIC "-//W3C//DTD SVG 1.1//EN" "http://www.w3.org/Graphics/SVG/1.1/DTD/svg11.dtd">
<!-- Creator: CorelDRAW 2021.5 -->
<svg xmlns="http://www.w3.org/2000/svg" xml:space="preserve" width="82.2162mm" height="82.2162mm" version="1.1" style="shape-rendering:geometricPrecision; text-rendering:geometricPrecision; image-rendering:optimizeQuality; fill-rule:evenodd; clip-rule:evenodd"
viewBox="0 0 454.87 454.87"
 xmlns:xlink="http://www.w3.org/1999/xlink"
 xmlns:xodm="http://www.corel.com/coreldraw/odm/2003">
 <defs>
  <style type="text/css">
   <![CDATA[
    .str0 {stroke:black;stroke-width:1.11;stroke-miterlimit:22.9256}
    .fil3 {fill:none}
    .fil4 {fill:#011B34}
    .fil1 {fill:#011B34}
    .fil2 {fill:#1CB8EB}
    .fil0 {fill:#999999}
   ]]>
  </style>
   <clipPath id="id0">
    <path d="M239.83 203.34c15.42,0 27.91,12.56 27.91,28.05 0,15.49 -12.5,28.05 -27.91,28.05 -15.42,0 -27.91,-12.56 -27.91,-28.05 0,-15.49 12.5,-28.05 27.91,-28.05z"/>
   </clipPath>
     <mask id="id1">
  <linearGradient id="id2" gradientUnits="userSpaceOnUse" x1="218.52" y1="226.18" x2="278.15" y2="243.25">
   <stop offset="0" style="stop-opacity:1; stop-color:white"/>
   <stop offset="1" style="stop-opacity:0; stop-color:white"/>
  </linearGradient>
      <rect style="fill:url(#id2)" x="209.73" y="201.14" width="60.19" height="60.49"/>
     </mask>
   <clipPath id="id3">
    <path d="M253.24 61.16c25.36,2.11 48.93,9.79 69.62,21.74 4.54,2.62 11.97,7.13 18.77,11.93 12.98,9.16 21.97,18.28 20.53,35.65 -1.6,19.31 -18.48,33.67 -37.69,32.07 -14.65,-1.22 -21.08,-10.45 -32.52,-17.71 -63.04,-39.96 -144.68,0.83 -150.92,75.98 -4.53,54.55 35.8,102.43 90.08,106.93 19.7,1.63 38.53,-2.67 54.73,-11.42 9.19,-4.96 14.63,-9.53 21.94,-16.66 7.99,-7.78 15.04,-13.87 29.84,-12.64 19.21,1.59 33.49,18.54 31.89,37.85 -1.59,19.11 -21.98,33.82 -36.88,43.89 -30.47,20.59 -67.83,31.31 -107.25,28.04 -92.23,-7.65 -160.76,-89 -153.07,-181.69 7.69,-92.69 88.7,-161.63 180.93,-153.97z"/>
   </clipPath>
     <mask id="id4">
  <linearGradient id="id5" gradientUnits="userSpaceOnUse" x1="120.46" y1="199.32" x2="347.33" y2="367.14">
   <stop offset="0" style="stop-opacity:1; stop-color:white"/>
   <stop offset="1" style="stop-opacity:0; stop-color:white"/>
  </linearGradient>
      <rect style="fill:url(#id5)" x="-21.15" y="0.54" width="575.9" height="486.83"/>
     </mask>
 </defs>
 <g id="Capa_x0020_1">
  <metadata id="CorelCorpID_0Corel-Layer"/>
  <rect class="fil0" width="454.87" height="454.87" rx="53.91" ry="56.8"/>
  <path class="fil1" d="M239.83 203.34c15.42,0 27.91,12.56 27.91,28.05 0,15.49 -12.5,28.05 -27.91,28.05 -15.42,0 -27.91,-12.56 -27.91,-28.05 0,-15.49 12.5,-28.05 27.91,-28.05z"/>
  <g style="clip-path:url(#id0)">
   <g id="_2898248662944">
    <path id="_1" class="fil2" style="mask:url(#id1)" d="M239.83 201.7c16.32,0 29.54,13.29 29.54,29.69 0,16.4 -13.23,29.69 -29.54,29.69 -16.32,0 -29.54,-13.29 -29.54,-29.69 0,-16.4 13.23,-29.69 29.54,-29.69z"/>
   </g>
  </g>
  <path class="fil3" d="M239.83 203.34c15.42,0 27.91,12.56 27.91,28.05 0,15.49 -12.5,28.05 -27.91,28.05 -15.42,0 -27.91,-12.56 -27.91,-28.05 0,-15.49 12.5,-28.05 27.91,-28.05z"/>
  <path class="fil4" d="M253.24 61.16c25.36,2.11 48.93,9.79 69.62,21.74 4.54,2.62 11.97,7.13 18.77,11.93 12.98,9.16 21.97,18.28 20.53,35.65 -1.6,19.31 -18.48,33.67 -37.69,32.07 -14.65,-1.22 -21.08,-10.45 -32.52,-17.71 -63.04,-39.96 -144.68,0.83 -150.92,75.98 -4.53,54.55 35.8,102.43 90.08,106.93 19.7,1.63 38.53,-2.67 54.73,-11.42 9.19,-4.96 14.63,-9.53 21.94,-16.66 7.99,-7.78 15.04,-13.87 29.84,-12.64 19.21,1.59 33.49,18.54 31.89,37.85 -1.59,19.11 -21.98,33.82 -36.88,43.89 -30.47,20.59 -67.83,31.31 -107.25,28.04 -92.23,-7.65 -160.76,-89 -153.07,-181.69 7.69,-92.69 88.7,-161.63 180.93,-153.97z"/>
  <g style="clip-path:url(#id3)">
   <g id="_2898248663376">
    <polygon id="_1_0" class="fil2 str0" style="mask:url(#id4)" points="16.01,1.1 554.2,45.76 517.59,486.82 -20.6,442.16 "/>
   </g>
  </g>
  <path class="fil3" d="M253.24 61.16c25.36,2.11 48.93,9.79 69.62,21.74 4.54,2.62 11.97,7.13 18.77,11.93 12.98,9.16 21.97,18.28 20.53,35.65 -1.6,19.31 -18.48,33.67 -37.69,32.07 -14.65,-1.22 -21.08,-10.45 -32.52,-17.71 -63.04,-39.96 -144.68,0.83 -150.92,75.98 -4.53,54.55 35.8,102.43 90.08,106.93 19.7,1.63 38.53,-2.67 54.73,-11.42 9.19,-4.96 14.63,-9.53 21.94,-16.66 7.99,-7.78 15.04,-13.87 29.84,-12.64 19.21,1.59 33.49,18.54 31.89,37.85 -1.59,19.11 -21.98,33.82 -36.88,43.89 -30.47,20.59 -67.83,31.31 -107.25,28.04 -92.23,-7.65 -160.76,-89 -153.07,-181.69 7.69,-92.69 88.7,-161.63 180.93,-153.97z"/>
 </g>
</svg>
