<?xml version="1.0" encoding="UTF-8"?>
<!DOCTYPE svg PUBLIC "-//W3C//DTD SVG 1.1//EN" "http://www.w3.org/Graphics/SVG/1.1/DTD/svg11.dtd">
<!-- Creator: CorelDRAW 2021.5 -->
<svg xmlns="http://www.w3.org/2000/svg" xml:space="preserve" width="56.7293mm" height="60.8796mm" version="1.1" style="shape-rendering:geometricPrecision; text-rendering:geometricPrecision; image-rendering:optimizeQuality; fill-rule:evenodd; clip-rule:evenodd"
viewBox="0 0 278.49 298.86"
 xmlns:xlink="http://www.w3.org/1999/xlink"
 xmlns:xodm="http://www.corel.com/coreldraw/odm/2003">
 <defs>
  <style type="text/css">
   <![CDATA[
    .str1 {stroke:white;stroke-width:1.73;stroke-miterlimit:22.9256}
    .str0 {stroke:black;stroke-width:0.98;stroke-miterlimit:22.9256}
    .fil1 {fill:none}
    .fil3 {fill:#999999}
    .fil0 {fill:white}
    .fil2 {fill:white}
    .fil4 {fill:white;fill-rule:nonzero}
   ]]>
  </style>
   <clipPath id="id0">
    <path d="M149.16 126.67c13.68,0 24.77,11.14 24.77,24.89 0,13.75 -11.09,24.89 -24.77,24.89 -13.68,0 -24.77,-11.14 -24.77,-24.89 0,-13.75 11.09,-24.89 24.77,-24.89z"/>
   </clipPath>
     <mask id="id1">
  <linearGradient id="id2" gradientUnits="userSpaceOnUse" x1="62.32" y1="167.88" x2="115.23" y2="183.03">
   <stop offset="0" style="stop-opacity:1; stop-color:white"/>
   <stop offset="1" style="stop-opacity:0; stop-color:white"/>
  </linearGradient>
      <rect style="fill:url(#id2)" x="54.52" y="145.66" width="53.41" height="53.67"/>
     </mask>
   <clipPath id="id3">
    <path d="M161.06 0.52c22.5,1.87 43.42,8.68 61.77,19.29 4.03,2.33 10.62,6.32 16.65,10.59 11.52,8.13 19.5,16.22 18.22,31.63 -1.42,17.13 -16.39,29.87 -33.44,28.46 -13,-1.08 -18.7,-9.27 -28.86,-15.71 -55.94,-35.46 -128.37,0.74 -133.91,67.42 -4.02,48.4 31.77,90.88 79.93,94.88 17.48,1.45 34.18,-2.37 48.57,-10.13 8.16,-4.4 12.98,-8.46 19.47,-14.78 7.09,-6.91 13.34,-12.3 26.48,-11.21 17.05,1.41 29.71,16.45 28.29,33.58 -1.41,16.96 -19.5,30.01 -32.72,38.94 -27.03,18.27 -60.19,27.78 -95.16,24.88 -81.84,-6.79 -142.64,-78.97 -135.82,-161.22 6.83,-82.24 78.7,-143.41 160.54,-136.62z"/>
   </clipPath>
     <mask id="id4">
  <linearGradient id="id5" gradientUnits="userSpaceOnUse" x1="263.31" y1="277.58" x2="194.65" y2="184.62">
   <stop offset="0" style="stop-opacity:1; stop-color:white"/>
   <stop offset="0.729412" style="stop-opacity:0.501961; stop-color:white"/>
   <stop offset="1" style="stop-opacity:0; stop-color:white"/>
  </linearGradient>
      <rect style="fill:url(#id5)" x="-82.4" y="-53.27" width="511" height="431.97"/>
     </mask>
 </defs>
 <g id="Capa_x0020_1">
  <metadata id="CorelCorpID_0Corel-Layer"/>
  <path class="fil0" d="M149.16 126.67c13.68,0 24.77,11.14 24.77,24.89 0,13.75 -11.09,24.89 -24.77,24.89 -13.68,0 -24.77,-11.14 -24.77,-24.89 0,-13.75 11.09,-24.89 24.77,-24.89z"/>
  <g style="clip-path:url(#id0)">
   <g id="_2898614498544">
    <path id="_1" class="fil0" style="mask:url(#id1)" d="M81.22 146.15c14.48,0 26.21,11.8 26.21,26.34 0,14.55 -11.74,26.35 -26.21,26.35 -14.48,0 -26.21,-11.8 -26.21,-26.35 0,-14.55 11.74,-26.34 26.21,-26.34z"/>
   </g>
  </g>
  <path class="fil1" d="M149.16 126.67c13.68,0 24.77,11.14 24.77,24.89 0,13.75 -11.09,24.89 -24.77,24.89 -13.68,0 -24.77,-11.14 -24.77,-24.89 0,-13.75 11.09,-24.89 24.77,-24.89z"/>
  <path class="fil2" d="M161.06 0.52c22.5,1.87 43.42,8.68 61.77,19.29 4.03,2.33 10.62,6.32 16.65,10.59 11.52,8.13 19.5,16.22 18.22,31.63 -1.42,17.13 -16.39,29.87 -33.44,28.46 -13,-1.08 -18.7,-9.27 -28.86,-15.71 -55.94,-35.46 -128.37,0.74 -133.91,67.42 -4.02,48.4 31.77,90.88 79.93,94.88 17.48,1.45 34.18,-2.37 48.57,-10.13 8.16,-4.4 12.98,-8.46 19.47,-14.78 7.09,-6.91 13.34,-12.3 26.48,-11.21 17.05,1.41 29.71,16.45 28.29,33.58 -1.41,16.96 -19.5,30.01 -32.72,38.94 -27.03,18.27 -60.19,27.78 -95.16,24.88 -81.84,-6.79 -142.64,-78.97 -135.82,-161.22 6.83,-82.24 78.7,-143.41 160.54,-136.62z"/>
  <g style="clip-path:url(#id3)">
   <g id="_2898614479824">
    <polygon id="_1_0" class="fil3 str0" style="mask:url(#id4)" points="395.62,378.21 -81.91,338.57 -49.43,-52.78 428.11,-13.15 "/>
   </g>
  </g>
  <path class="fil1" d="M161.06 0.52c22.5,1.87 43.42,8.68 61.77,19.29 4.03,2.33 10.62,6.32 16.65,10.59 11.52,8.13 19.5,16.22 18.22,31.63 -1.42,17.13 -16.39,29.87 -33.44,28.46 -13,-1.08 -18.7,-9.27 -28.86,-15.71 -55.94,-35.46 -128.37,0.74 -133.91,67.42 -4.02,48.4 31.77,90.88 79.93,94.88 17.48,1.45 34.18,-2.37 48.57,-10.13 8.16,-4.4 12.98,-8.46 19.47,-14.78 7.09,-6.91 13.34,-12.3 26.48,-11.21 17.05,1.41 29.71,16.45 28.29,33.58 -1.41,16.96 -19.5,30.01 -32.72,38.94 -27.03,18.27 -60.19,27.78 -95.16,24.88 -81.84,-6.79 -142.64,-78.97 -135.82,-161.22 6.83,-82.24 78.7,-143.41 160.54,-136.62z"/>
  <circle class="fil1 str1" cx="263.61" cy="20.67" r="14.01"/>
  <path class="fil4" d="M271.17 28.01l-3.06 0 -2.4 -4.17c-0.42,-0.73 -0.81,-1.23 -1.16,-1.51 -0.35,-0.28 -0.76,-0.43 -1.24,-0.45l-1.39 0 0 6.12 -2.66 0 0 -15.68 5.13 0c1.62,0 2.9,0.36 3.83,1.09 0.93,0.73 1.39,1.81 1.39,3.26 0,1.08 -0.3,1.99 -0.89,2.74 -0.59,0.75 -1.41,1.3 -2.44,1.65l0 0.04c0.39,0.17 0.75,0.43 1.07,0.77 0.32,0.35 0.63,0.76 0.9,1.24l2.9 4.88zm-9.24 -13.54l0 5.26 2.02 0c0.84,0 1.53,-0.27 2.06,-0.79 0.54,-0.53 0.81,-1.2 0.81,-2.01 0,-0.78 -0.24,-1.38 -0.72,-1.81 -0.48,-0.43 -1.18,-0.65 -2.11,-0.65l-2.06 0z"/>
 </g>
</svg>
