<?xml version="1.0" encoding="UTF-8"?>
<!DOCTYPE svg PUBLIC "-//W3C//DTD SVG 1.1//EN" "http://www.w3.org/Graphics/SVG/1.1/DTD/svg11.dtd">
<!-- Creator: CorelDRAW 2021.5 -->
<svg xmlns="http://www.w3.org/2000/svg" xml:space="preserve" width="82.2162mm" height="82.2162mm" version="1.1" style="shape-rendering:geometricPrecision; text-rendering:geometricPrecision; image-rendering:optimizeQuality; fill-rule:evenodd; clip-rule:evenodd"
viewBox="0 0 454.87 454.87"
 xmlns:xlink="http://www.w3.org/1999/xlink"
 xmlns:xodm="http://www.corel.com/coreldraw/odm/2003">
 <defs>
  <style type="text/css">
   <![CDATA[
    .str0 {stroke:black;stroke-width:1.11;stroke-miterlimit:22.9256}
    .fil3 {fill:none}
    .fil5 {fill:#011B34}
    .fil1 {fill:#011B34}
    .fil2 {fill:#1CB8EB}
    .fil0 {fill:white}
    .fil4 {fill:#2B83C4;fill-rule:nonzero}
   ]]>
  </style>
   <clipPath id="id0">
    <path d="M162.4 214.65c11.43,0 20.69,9.31 20.69,20.79 0,11.48 -9.26,20.79 -20.69,20.79 -11.42,0 -20.69,-9.31 -20.69,-20.79 0,-11.48 9.26,-20.79 20.69,-20.79z"/>
   </clipPath>
     <mask id="id1">
  <linearGradient id="id2" gradientUnits="userSpaceOnUse" x1="146.61" y1="231.58" x2="190.8" y2="244.23">
   <stop offset="0" style="stop-opacity:1; stop-color:white"/>
   <stop offset="1" style="stop-opacity:0; stop-color:white"/>
  </linearGradient>
      <rect style="fill:url(#id2)" x="139.95" y="212.88" width="44.9" height="45.12"/>
     </mask>
   <clipPath id="id3">
    <path d="M172.34 109.28c18.8,1.56 36.27,7.25 51.6,16.11 3.37,1.94 8.87,5.28 13.91,8.84 9.62,6.79 16.28,13.55 15.22,26.42 -1.19,14.31 -13.69,24.95 -27.93,23.77 -10.86,-0.9 -15.62,-7.74 -24.1,-13.12 -46.72,-29.62 -107.23,0.62 -111.85,56.32 -3.36,40.43 26.54,75.91 66.77,79.25 14.6,1.21 28.55,-1.98 40.57,-8.47 6.81,-3.68 10.84,-7.06 16.26,-12.35 5.92,-5.77 11.15,-10.28 22.12,-9.37 14.24,1.18 24.82,13.74 23.63,28.05 -1.18,14.16 -16.29,25.07 -27.33,32.53 -22.58,15.26 -50.27,23.21 -79.49,20.78 -68.36,-5.67 -119.15,-65.96 -113.45,-134.66 5.7,-68.7 65.74,-119.79 134.09,-114.11z"/>
   </clipPath>
     <mask id="id4">
  <linearGradient id="id5" gradientUnits="userSpaceOnUse" x1="73.94" y1="211.67" x2="242.08" y2="336.05">
   <stop offset="0" style="stop-opacity:1; stop-color:white"/>
   <stop offset="1" style="stop-opacity:0; stop-color:white"/>
  </linearGradient>
      <rect style="fill:url(#id5)" x="-31.16" y="64.21" width="427.11" height="361.1"/>
     </mask>
 </defs>
 <g id="Capa_x0020_1">
  <metadata id="CorelCorpID_0Corel-Layer"/>
  <rect class="fil0" width="454.87" height="454.87" rx="53.91" ry="56.8"/>
  <path class="fil1" d="M162.4 214.65c11.43,0 20.69,9.31 20.69,20.79 0,11.48 -9.26,20.79 -20.69,20.79 -11.42,0 -20.69,-9.31 -20.69,-20.79 0,-11.48 9.26,-20.79 20.69,-20.79z"/>
  <g style="clip-path:url(#id0)">
   <g id="_2897078409968">
    <path id="_1" class="fil2" style="mask:url(#id1)" d="M162.4 213.43c12.09,0 21.9,9.85 21.9,22 0,12.15 -9.8,22.01 -21.9,22.01 -12.09,0 -21.9,-9.85 -21.9,-22.01 0,-12.15 9.8,-22 21.9,-22z"/>
   </g>
  </g>
  <path class="fil3" d="M162.4 214.65c11.43,0 20.69,9.31 20.69,20.79 0,11.48 -9.26,20.79 -20.69,20.79 -11.42,0 -20.69,-9.31 -20.69,-20.79 0,-11.48 9.26,-20.79 20.69,-20.79z"/>
  <path class="fil4" d="M292.65 257.45c-4.49,2.17 -10.37,3.26 -17.61,3.26 -9.44,0 -16.88,-2.77 -22.29,-8.33 -5.43,-5.56 -8.12,-12.96 -8.12,-22.22 0,-9.85 3.04,-17.85 9.12,-23.98 6.09,-6.13 13.99,-9.19 23.7,-9.19 6.01,0 11.09,0.76 15.21,2.29l0 13.36c-4.12,-2.46 -8.81,-3.7 -14.09,-3.7 -5.78,0 -10.46,1.82 -14,5.45 -3.55,3.64 -5.32,8.56 -5.32,14.78 0,5.95 1.67,10.7 5.03,14.24 3.34,3.53 7.86,5.31 13.53,5.31 5.41,0 10.37,-1.32 14.85,-3.96l0 12.68zm57.17 -59.42l-20.06 39.69 0 21.91 -13.87 0 0 -21.66 -19.55 -39.94 15.85 0 9.93 22.98c0.18,0.43 0.65,2.11 1.41,5.03l0.18 0c0.38,-2.07 0.82,-3.68 1.33,-4.85l10.1 -23.15 14.68 0zm6.97 61.6l0 -61.6 21.83 0c21.88,0 32.82,10 32.82,30.03 0,9.59 -2.99,17.24 -8.96,22.98 -5.97,5.73 -13.92,8.59 -23.86,8.59l-21.83 0zm13.89 -50.31l0 39.05 6.88 0c6.01,0 10.72,-1.8 14.15,-5.41 3.42,-3.61 5.13,-8.52 5.13,-14.74 0,-5.87 -1.7,-10.48 -5.09,-13.84 -3.4,-3.37 -8.15,-5.06 -14.28,-5.06l-6.79 0z"/>
  <path class="fil5" d="M172.34 109.28c18.8,1.56 36.27,7.25 51.6,16.11 3.37,1.94 8.87,5.28 13.91,8.84 9.62,6.79 16.28,13.55 15.22,26.42 -1.19,14.31 -13.69,24.95 -27.93,23.77 -10.86,-0.9 -15.62,-7.74 -24.1,-13.12 -46.72,-29.62 -107.23,0.62 -111.85,56.32 -3.36,40.43 26.54,75.91 66.77,79.25 14.6,1.21 28.55,-1.98 40.57,-8.47 6.81,-3.68 10.84,-7.06 16.26,-12.35 5.92,-5.77 11.15,-10.28 22.12,-9.37 14.24,1.18 24.82,13.74 23.63,28.05 -1.18,14.16 -16.29,25.07 -27.33,32.53 -22.58,15.26 -50.27,23.21 -79.49,20.78 -68.36,-5.67 -119.15,-65.96 -113.45,-134.66 5.7,-68.7 65.74,-119.79 134.09,-114.11z"/>
  <g style="clip-path:url(#id3)">
   <g id="_2861937658656">
    <polygon id="_1_0" class="fil2 str0" style="mask:url(#id4)" points="-3.48,64.76 395.4,97.86 368.27,424.75 -30.61,391.65 "/>
   </g>
  </g>
  <path class="fil3" d="M172.34 109.28c18.8,1.56 36.27,7.25 51.6,16.11 3.37,1.94 8.87,5.28 13.91,8.84 9.62,6.79 16.28,13.55 15.22,26.42 -1.19,14.31 -13.69,24.95 -27.93,23.77 -10.86,-0.9 -15.62,-7.74 -24.1,-13.12 -46.72,-29.62 -107.23,0.62 -111.85,56.32 -3.36,40.43 26.54,75.91 66.77,79.25 14.6,1.21 28.55,-1.98 40.57,-8.47 6.81,-3.68 10.84,-7.06 16.26,-12.35 5.92,-5.77 11.15,-10.28 22.12,-9.37 14.24,1.18 24.82,13.74 23.63,28.05 -1.18,14.16 -16.29,25.07 -27.33,32.53 -22.58,15.26 -50.27,23.21 -79.49,20.78 -68.36,-5.67 -119.15,-65.96 -113.45,-134.66 5.7,-68.7 65.74,-119.79 134.09,-114.11z"/>
 </g>
</svg>
