<?xml version="1.0" encoding="UTF-8"?>
<!DOCTYPE svg PUBLIC "-//W3C//DTD SVG 1.1//EN" "http://www.w3.org/Graphics/SVG/1.1/DTD/svg11.dtd">
<!-- Creator: CorelDRAW 2021.5 -->
<svg xmlns="http://www.w3.org/2000/svg" xml:space="preserve" width="56.9866mm" height="60.8796mm" version="1.1" style="shape-rendering:geometricPrecision; text-rendering:geometricPrecision; image-rendering:optimizeQuality; fill-rule:evenodd; clip-rule:evenodd"
viewBox="0 0 1302.98 1391.99"
 xmlns:xlink="http://www.w3.org/1999/xlink"
 xmlns:xodm="http://www.corel.com/coreldraw/odm/2003">
 <defs>
  <style type="text/css">
   <![CDATA[
    .str1 {stroke:black;stroke-width:8.07;stroke-miterlimit:22.9256}
    .str0 {stroke:black;stroke-width:4.57;stroke-miterlimit:22.9256}
    .fil2 {fill:none}
    .fil0 {fill:black}
    .fil1 {fill:#999999}
    .fil3 {fill:black;fill-rule:nonzero}
   ]]>
  </style>
   <clipPath id="id0">
    <path d="M694.73 589.97c63.71,0 115.35,51.9 115.35,115.93 0,64.03 -51.64,115.93 -115.35,115.93 -63.71,0 -115.35,-51.9 -115.35,-115.93 0,-64.02 51.64,-115.93 115.35,-115.93z"/>
   </clipPath>
     <mask id="id1">
  <linearGradient id="id2" gradientUnits="userSpaceOnUse" x1="606.68" y1="684.38" x2="853.09" y2="754.93">
   <stop offset="0" style="stop-opacity:1; stop-color:white"/>
   <stop offset="1" style="stop-opacity:0; stop-color:white"/>
  </linearGradient>
      <rect style="fill:url(#id2)" x="570.35" y="580.9" width="248.76" height="249.98"/>
     </mask>
   <clipPath id="id3">
    <path d="M750.15 2.4c104.82,8.7 202.22,40.44 287.7,89.85 18.77,10.84 49.46,29.45 77.56,49.3 53.64,37.86 90.8,75.55 84.85,147.33 -6.62,79.8 -76.36,139.14 -155.75,132.55 -60.55,-5.03 -87.1,-43.18 -134.41,-73.17 -260.52,-165.15 -597.91,3.44 -623.69,314.02 -18.71,225.45 147.96,423.3 372.29,441.91 81.41,6.76 159.21,-11.03 226.2,-47.2 37.99,-20.51 60.44,-39.39 90.66,-68.86 33.01,-32.16 62.15,-57.31 123.32,-52.23 79.39,6.59 138.39,76.62 131.77,156.41 -6.56,78.98 -90.83,139.78 -152.41,181.39 -125.91,85.07 -280.33,129.4 -443.23,115.88 -381.16,-31.63 -664.38,-367.81 -632.59,-750.88 31.79,-383.06 366.55,-667.95 747.72,-636.31z"/>
   </clipPath>
     <mask id="id4">
  <linearGradient id="id5" gradientUnits="userSpaceOnUse" x1="201.42" y1="573.37" x2="1139" y2="1266.91">
   <stop offset="0" style="stop-opacity:1; stop-color:white"/>
   <stop offset="1" style="stop-opacity:0; stop-color:white"/>
  </linearGradient>
      <rect style="fill:url(#id5)" x="-383.8" y="-248.11" width="2380.03" height="2011.93"/>
     </mask>
 </defs>
 <g id="Capa_x0020_1">
  <metadata id="CorelCorpID_0Corel-Layer"/>
  <path class="fil0" d="M694.73 589.97c63.71,0 115.35,51.9 115.35,115.93 0,64.03 -51.64,115.93 -115.35,115.93 -63.71,0 -115.35,-51.9 -115.35,-115.93 0,-64.02 51.64,-115.93 115.35,-115.93z"/>
  <g style="clip-path:url(#id0)">
   <g id="_2898239160448">
    <path id="_1" class="fil1" style="mask:url(#id1)" d="M694.73 583.19c67.43,0 122.09,54.94 122.09,122.7 0,67.77 -54.66,122.71 -122.09,122.71 -67.43,0 -122.1,-54.94 -122.1,-122.71 0,-67.77 54.66,-122.7 122.1,-122.7z"/>
   </g>
  </g>
  <path class="fil2" d="M694.73 589.97c63.71,0 115.35,51.9 115.35,115.93 0,64.03 -51.64,115.93 -115.35,115.93 -63.71,0 -115.35,-51.9 -115.35,-115.93 0,-64.02 51.64,-115.93 115.35,-115.93z"/>
  <path class="fil0" d="M750.15 2.4c104.82,8.7 202.22,40.44 287.7,89.85 18.77,10.84 49.46,29.45 77.56,49.3 53.64,37.86 90.8,75.55 84.85,147.33 -6.62,79.8 -76.36,139.14 -155.75,132.55 -60.55,-5.03 -87.1,-43.18 -134.41,-73.17 -260.52,-165.15 -597.91,3.44 -623.69,314.02 -18.71,225.45 147.96,423.3 372.29,441.91 81.41,6.76 159.21,-11.03 226.2,-47.2 37.99,-20.51 60.44,-39.39 90.66,-68.86 33.01,-32.16 62.15,-57.31 123.32,-52.23 79.39,6.59 138.39,76.62 131.77,156.41 -6.56,78.98 -90.83,139.78 -152.41,181.39 -125.91,85.07 -280.33,129.4 -443.23,115.88 -381.16,-31.63 -664.38,-367.81 -632.59,-750.88 31.79,-383.06 366.55,-667.95 747.72,-636.31z"/>
  <g style="clip-path:url(#id3)">
   <g id="_2898239163280">
    <polygon id="_1_0" class="fil1 str0" style="mask:url(#id4)" points="-230.23,-245.83 1993.94,-61.23 1842.66,1761.53 -381.51,1576.94 "/>
   </g>
  </g>
  <path class="fil2" d="M750.15 2.4c104.82,8.7 202.22,40.44 287.7,89.85 18.77,10.84 49.46,29.45 77.56,49.3 53.64,37.86 90.8,75.55 84.85,147.33 -6.62,79.8 -76.36,139.14 -155.75,132.55 -60.55,-5.03 -87.1,-43.18 -134.41,-73.17 -260.52,-165.15 -597.91,3.44 -623.69,314.02 -18.71,225.45 147.96,423.3 372.29,441.91 81.41,6.76 159.21,-11.03 226.2,-47.2 37.99,-20.51 60.44,-39.39 90.66,-68.86 33.01,-32.16 62.15,-57.31 123.32,-52.23 79.39,6.59 138.39,76.62 131.77,156.41 -6.56,78.98 -90.83,139.78 -152.41,181.39 -125.91,85.07 -280.33,129.4 -443.23,115.88 -381.16,-31.63 -664.38,-367.81 -632.59,-750.88 31.79,-383.06 366.55,-667.95 747.72,-636.31z"/>
  <circle class="fil2 str1" cx="1233.69" cy="80.42" r="65.26"/>
  <path class="fil3" d="M1268.89 114.58l-14.25 0 -11.16 -19.4c-1.96,-3.41 -3.75,-5.73 -5.39,-7.04 -1.63,-1.28 -3.55,-1.98 -5.75,-2.09l-6.47 0 0 28.53 -12.38 0 0 -73.03 23.88 0c7.56,0 13.52,1.69 17.85,5.09 4.33,3.39 6.48,8.45 6.48,15.18 0,5.02 -1.37,9.28 -4.15,12.78 -2.76,3.49 -6.55,6.07 -11.37,7.7l0 0.19c1.82,0.78 3.49,1.98 5.01,3.6 1.51,1.62 2.92,3.53 4.21,5.77l13.49 22.72zm-43.02 -63.05l0 24.49 9.42 0c3.89,0 7.11,-1.23 9.61,-3.68 2.52,-2.47 3.77,-5.58 3.77,-9.35 0,-3.63 -1.11,-6.45 -3.35,-8.45 -2.24,-2 -5.51,-3.01 -9.84,-3.01l-9.61 0z"/>
 </g>
</svg>
