<?xml version="1.0" encoding="UTF-8"?>
<!DOCTYPE svg PUBLIC "-//W3C//DTD SVG 1.1//EN" "http://www.w3.org/Graphics/SVG/1.1/DTD/svg11.dtd">
<!-- Creator: CorelDRAW 2021.5 -->
<svg xmlns="http://www.w3.org/2000/svg" xml:space="preserve" width="57.6351mm" height="60.8795mm" version="1.1" style="shape-rendering:geometricPrecision; text-rendering:geometricPrecision; image-rendering:optimizeQuality; fill-rule:evenodd; clip-rule:evenodd"
viewBox="0 0 3746.09 3956.97"
 xmlns:xlink="http://www.w3.org/1999/xlink"
 xmlns:xodm="http://www.corel.com/coreldraw/odm/2003">
 <defs>
  <style type="text/css">
   <![CDATA[
    .str1 {stroke:black;stroke-width:22.93;stroke-miterlimit:22.9256}
    .str0 {stroke:black;stroke-width:13;stroke-miterlimit:22.9256}
    .fil2 {fill:none}
    .fil3 {fill:#011B34}
    .fil0 {fill:#011B34}
    .fil1 {fill:#1CB8EB}
    .fil4 {fill:black;fill-rule:nonzero}
   ]]>
  </style>
   <clipPath id="id0">
    <path d="M1974.89 1677.08c181.09,0 327.9,147.54 327.9,329.54 0,182 -146.81,329.55 -327.9,329.55 -181.1,0 -327.91,-147.54 -327.91,-329.55 0,-182 146.81,-329.54 327.91,-329.54z"/>
   </clipPath>
     <mask id="id1">
  <linearGradient id="id2" gradientUnits="userSpaceOnUse" x1="1724.6" y1="1945.47" x2="2425.07" y2="2146.02">
   <stop offset="0" style="stop-opacity:1; stop-color:white"/>
   <stop offset="1" style="stop-opacity:0; stop-color:white"/>
  </linearGradient>
      <rect style="fill:url(#id2)" x="1621.31" y="1651.31" width="707.15" height="710.62"/>
     </mask>
   <clipPath id="id3">
    <path d="M2132.43 6.82c297.96,24.73 574.84,114.96 817.83,255.42 53.34,30.82 140.6,83.73 220.49,140.15 152.47,107.63 258.13,214.76 241.19,418.81 -18.82,226.83 -217.06,395.53 -442.76,376.8 -172.11,-14.29 -247.61,-122.75 -382.07,-208 -740.59,-469.46 -1699.67,9.79 -1772.94,892.65 -53.19,640.87 420.61,1203.29 1058.3,1256.22 231.41,19.21 452.59,-31.37 643.02,-134.19 107.99,-58.29 171.82,-111.97 257.72,-195.74 93.84,-91.43 176.67,-162.91 350.55,-148.48 225.69,18.73 393.41,217.82 374.58,444.64 -18.63,224.51 -258.21,397.35 -433.25,515.63 -357.92,241.84 -796.88,367.86 -1259.96,329.42 -1083.52,-89.92 -1888.6,-1045.56 -1798.23,-2134.5 90.38,-1088.92 1042,-1898.76 2125.51,-1808.83z"/>
   </clipPath>
     <mask id="id4">
  <linearGradient id="id5" gradientUnits="userSpaceOnUse" x1="572.58" y1="1629.91" x2="3237.82" y2="3601.41">
   <stop offset="0" style="stop-opacity:1; stop-color:white"/>
   <stop offset="1" style="stop-opacity:0; stop-color:white"/>
  </linearGradient>
      <rect style="fill:url(#id5)" x="-1091.01" y="-705.31" width="6765.64" height="5719.26"/>
     </mask>
 </defs>
 <g id="Capa_x0020_1">
  <metadata id="CorelCorpID_0Corel-Layer"/>
  <path class="fil0" d="M1974.89 1677.08c181.09,0 327.9,147.54 327.9,329.54 0,182 -146.81,329.55 -327.9,329.55 -181.1,0 -327.91,-147.54 -327.91,-329.55 0,-182 146.81,-329.54 327.91,-329.54z"/>
  <g style="clip-path:url(#id0)">
   <g id="_2862405195216">
    <path id="_1" class="fil1" style="mask:url(#id1)" d="M1974.89 1657.81c191.68,0 347.07,156.17 347.07,348.81 0,192.64 -155.39,348.81 -347.07,348.81 -191.69,0 -347.08,-156.17 -347.08,-348.81 0,-192.64 155.39,-348.81 347.08,-348.81z"/>
   </g>
  </g>
  <path class="fil2" d="M1974.89 1677.08c181.09,0 327.9,147.54 327.9,329.54 0,182 -146.81,329.55 -327.9,329.55 -181.1,0 -327.91,-147.54 -327.91,-329.55 0,-182 146.81,-329.54 327.91,-329.54z"/>
  <path class="fil3" d="M2132.43 6.82c297.96,24.73 574.84,114.96 817.83,255.42 53.34,30.82 140.6,83.73 220.49,140.15 152.47,107.63 258.13,214.76 241.19,418.81 -18.82,226.83 -217.06,395.53 -442.76,376.8 -172.11,-14.29 -247.61,-122.75 -382.07,-208 -740.59,-469.46 -1699.67,9.79 -1772.94,892.65 -53.19,640.87 420.61,1203.29 1058.3,1256.22 231.41,19.21 452.59,-31.37 643.02,-134.19 107.99,-58.29 171.82,-111.97 257.72,-195.74 93.84,-91.43 176.67,-162.91 350.55,-148.48 225.69,18.73 393.41,217.82 374.58,444.64 -18.63,224.51 -258.21,397.35 -433.25,515.63 -357.92,241.84 -796.88,367.86 -1259.96,329.42 -1083.52,-89.92 -1888.6,-1045.56 -1798.23,-2134.5 90.38,-1088.92 1042,-1898.76 2125.51,-1808.83z"/>
  <g style="clip-path:url(#id3)">
   <g id="_2862405199296">
    <polygon id="_1_0" class="fil1 str0" style="mask:url(#id4)" points="-654.47,-698.81 5668.13,-174.07 5238.08,5007.45 -1084.51,4482.71 "/>
   </g>
  </g>
  <path class="fil2" d="M2132.43 6.82c297.96,24.73 574.84,114.96 817.83,255.42 53.34,30.82 140.6,83.73 220.49,140.15 152.47,107.63 258.13,214.76 241.19,418.81 -18.82,226.83 -217.06,395.53 -442.76,376.8 -172.11,-14.29 -247.61,-122.75 -382.07,-208 -740.59,-469.46 -1699.67,9.79 -1772.94,892.65 -53.19,640.87 420.61,1203.29 1058.3,1256.22 231.41,19.21 452.59,-31.37 643.02,-134.19 107.99,-58.29 171.82,-111.97 257.72,-195.74 93.84,-91.43 176.67,-162.91 350.55,-148.48 225.69,18.73 393.41,217.82 374.58,444.64 -18.63,224.51 -258.21,397.35 -433.25,515.63 -357.92,241.84 -796.88,367.86 -1259.96,329.42 -1083.52,-89.92 -1888.6,-1045.56 -1798.23,-2134.5 90.38,-1088.92 1042,-1898.76 2125.51,-1808.83z"/>
  <circle class="fil2 str1" cx="3549.13" cy="304.39" r="185.5"/>
  <path class="fil4" d="M3649.18 401.51l-40.52 0 -31.72 -55.15c-5.58,-9.68 -10.67,-16.3 -15.32,-20.01 -4.65,-3.65 -10.08,-5.63 -16.35,-5.93l-18.39 0 0 81.09 -35.18 0 0 -207.59 67.9 0c21.49,0 38.45,4.8 50.75,14.48 12.3,9.63 18.43,24.02 18.43,43.14 0,14.28 -3.91,26.39 -11.81,36.32 -7.86,9.93 -18.63,17.24 -32.32,21.89l0 0.54c5.19,2.23 9.93,5.64 14.23,10.23 4.3,4.6 8.31,10.04 11.96,16.41l38.35 64.59zm-122.3 -179.23l0 69.62 26.79 0c11.07,0 20.21,-3.51 27.32,-10.47 7.17,-7.02 10.72,-15.87 10.72,-26.59 0,-10.33 -3.17,-18.33 -9.54,-24.02 -6.38,-5.68 -15.66,-8.55 -27.97,-8.55l-27.33 0z"/>
 </g>
</svg>
